<svg width="1512" height="164" fill="none" xmlns="http://www.w3.org/2000/svg"><g clip-path="url(#a)"><path d="M1512.5 141s-504.97-19.669-739-16.5C523.38 127.893 5 161.5 5 161.5" stroke="#FEB611" stroke-width="4.765" stroke-linecap="round" stroke-linejoin="round"/><path d="M1508 150.5s-508.287-23.471-759.5-25C497.298 123.971 5 152.5 5 152.5" stroke="#000" stroke-width="4.765" stroke-linecap="round" stroke-linejoin="round"/><path fill-rule="evenodd" clip-rule="evenodd" d="M1280.92 9.66c-1.74-.078-3.07-1.584-5.07-1.752-7.55-.625-16.49 2.745-20.04 9.843-1.46 2.924-3 6.228-4.05 9.386-.51 1.506-.36 3.125-.82 4.631-.35 1.183-.92 3.55-2.2 1.853-1.48-1.975-1.77-4.196-2.08-6.607-1.39-10.602 6.37-18.76 15.63-22.13 2.61-.949 8.64-2.902 11.35-1.273.94.558 1.59 1.518 2.43 2.199.98.781 2.07 1.562 2.44 2.667M1249.16 36.645c-.75-1.506-3.75 1.641-4.23 2.076-2.97 2.723-6 6.283-7.3 10.2-.46 1.384-.95 2.824-1.16 4.286-.17 1.205.3 2.634 0 3.817-.16.647-.87.502-1.27.234-1.48-.982-1.93-3.203-2.33-4.754-1.93-7.7 2.82-11.473 8.81-15.055 1.79-1.071 5.39-2.924 7.53-1.853M1240.52 92.948c-10.41-.179-13.49-16.785-8.92-24.106 1.29-2.053 6.15-8.76 3.13-10.77-.99-.658-2.82 1.161-3.36 1.619-1.84 1.607-2.76 3.727-4.29 5.558-1.12 1.35-2.37 2.622-3.24 4.173-3.08 5.547-1.9 11.462.58 16.919.81 1.797 1.62 3.582 3.36 4.754 2.52 1.685 7.71 1.16 10.65 1.16M1238.78 95.838c-1.22-.602 2.7-.903 3.35-.58 2.91 1.45 4.46 6.183 6.03 8.805.38.637 1.53 2.857.69 3.471-1.82 1.362-4.04.212-5.68-.814-4.08-2.556-4.48-8.304-2.66-12.4M1280.16 53.05c-1.22.38-1.77 5.592-2.11 6.764-2.15 7.555-2.67 16.115-2.67 23.982 0 2.087.61 8.56-1.74 9.152-1.84.457-1.38-3.37-1.38-4.286 0-5.1.61-10.1.93-15.177.24-4.018.49-8.772-.12-12.745-.38-2.467-1.16-4.565-1.16-7.187 0-1.674-.56-5.469.82-6.83.61-.614 2.74-.804 3.47-1.038.62-.212 4.65-1.373 5.21-.815.51.514-.03 2.89-.11 3.594-.39 3.538 1.37 6.874-2.67 8.225M1269.44 95.213c-1.3-1.484-3.43.38-2.74 2.132.37.915 1.7 1.596 2.43 2.087 1.71 1.138 3.45 2.567 4.29 4.52 1.95 4.553 1.16 10.702 1.16 15.635 0 2.522.54 5 .11 7.533-.59 3.571 1.83 10.769-3.59 10.769-4.81 0-1.88-4.185-1.4-6.83.67-3.682.53-7.354 1.04-11.003.29-2.009.57-4.677.24-6.719-.55-3.281-1.3-7.232-4.18-9.385-1.17-.871-3.02-1.619-4.52-1.619-.42 0-1.62.246-1.74-.346-.98-4.899 5.02-8.548 9.15-6.484M1282.26 87.58c-1.08-.235-.6.881-.6 1.886 0 1.618.25 3.716 1.85 4.52 1.96.982 4.33-.558 6.14-1.161 1.15-.38 2.41-.658 3.59-.926 1.67-.39 2.75-1.194 4.16-2.087 2.31-1.44 7.15-2.254 6.15-6.261-.77-3.08-4.04-1.719-6.02-1.395-2.81.469-4.64 1.986-7.19 3.013-3.11 1.25-6.38 1.864-9.39 3.36" fill="#FEB611"/><path fill-rule="evenodd" clip-rule="evenodd" d="M1267.42 4.761c-.27.09 1.66.781 2.28.781 1.9 0 3.86.056 5.49.87 4.58 2.289 8.43 7.846 10.85 12.098 1.41 2.467 2.83 5.056 3.98 7.355.52 1.015.84 2.165 1.76 2.622 1.45.726 3.03-.837 4.11-1.372.67-.335 1.59-.424 2.25-.748 1.75-.882 4.27-3.47 6.85-1.752 1.84 1.216 2.59 2.232 3.12 4.364.4 1.584-.42 3.716 1.12 4.742 1.56 1.038 4.9.034 6.74.503 4.15 1.038 6.62 6.897 7.6 10.847 1.15 4.587 1.13 9.643 1.13 14.341 0 1.998-.48 4.676 0 6.607.27 1.06 1.06 5.178.24 5.981-.36.369-.65 1.82-.49 2.49 2.22 8.883.58 15.88-5.49 21.951-.57.57-.29 3.527-.87 4.486-1.68 2.802-4.91 6.462-7.49 8.605-2.42 2.02-7.86 4.073-11.09 2.991-1.47-.491-3.66-1.786-4.62-2.746-.09-.089-.99-.502-1.12-.379-.4.402-.51 1.361-1.12 1.875-1.52 1.272-3.43 2.232-4.37 4.118-.11.223 1.35.045 1.5 0 1.56-.525 3.34-3.17 4.99-2.623 1.97.659 3.67 1.976 5.61 2.623 3.27 1.094 10.1.502 13.09-.993 1.51-.759 2.97-1.607 4.5-2.366.7-.357 1.19-1.362 1.62-1.998 1.17-1.763 2.91-4.776 1.74-7.109-1.15-2.31-1.64-4.832-.37-7.354 1.1-2.21 3.81-3.795 5.36-5.737 1.21-1.506 1.2-2.946 1.87-4.62.85-2.11 2.32-3.794 2.87-5.982.55-2.165-2.01-5.557-3.11-7.231-.66-.971-1.67-1.206-1.38-2.623.48-2.388 2.44-4.788 3.36-7.109 1.12-2.779 1.12-5.904 1.63-8.984.15-.87.79-2.11.49-2.99-1.02-3.081-2.82-6.708-4.48-9.476-1.72-2.857-5.81-5.022-8.85-6.238-.91-.357-4.03-.413-4.62-.993-.23-.224.28-.57.38-.87.22-.67 0-1.764 0-2.49 0-2.343-.8-5.11-2.87-6.36-4.46-2.668-8.66 1.908-13.23-.38-4.32-2.165-5.67-6.507-7.98-10.346-.55-.926-2.06-1.752-2.99-2.366-2.78-1.852-5.61-3.515-8.98-4.24-1.89-.402-3.86-.246-5.74-.625-3.35-.67-6.96-1.83-9.73.379" fill="#B6B6B6"/><path fill-rule="evenodd" clip-rule="evenodd" d="M1289.14 38.42c-.03-.837-.49 1.384-.5 1.417-.36 1.094-.64 2.221-.87 3.37-.51 2.567-.11 5.313-.63 7.857-.14.748-.4 2.422-.12 3.248.86 2.578.98 5.2 2.24 7.734.53 1.049.99 2.087 1.5 3.113.25.48 1.42 1.373.88 1.373-1.29 0-3.6-2.299-4.62-3.114-1.13-.904-2.98-1.73-3.74-2.99-3.16-5.268-3.27-11.551-.62-16.841 1.07-2.154 2.46-3.192 4.24-4.61.37-.3.98-1.372 1.49-1.372M1301.67 78.34c-4.02.725-11.22 6.249-14.27.156-1.74-3.471-1.99-7.98-1.99-11.975 0-.536-.07-3.527-1.13-2.991-1.22.614-1.52 3.85-1.74 4.988-.97 4.866-2.37 9.71-2.37 14.72 0 1.06-.21 4.174 1.13 4.62 3.38 1.128 6.46-2.443 9.23-3.37.98-.323 2.06-.468 2.99-.993 1.05-.602 2.32-1.74 3.37-1.74M1309.44 92.144c-1.65.536-3.51.38-5.21.95-5.64 1.874-13.13 5.3-16.96 10.099-1.67 2.087-2.62 5.547-3 8.236-.11.748.64 3.728.25 4.118-1.17 1.172-4.56-.044-5.37-1.25-2.08-3.125.79-8.917 2.49-11.472 1.62-2.433 3.48-4.855 5.74-6.73 1.82-1.518 4.14-2.4 5.98-3.861 4.76-3.817 10.87-5.848 15.59-1.127M1263.72 50.16c-.74.134 1.37 2.656 2.11 3.638 1.47 1.964 2.58 4.699 3.49 6.986 1.16 2.902 1.76 6.094 2.37 9.107.05.301.08 3.739.38 3.739v-9.855c0-3.95-.13-7.89-.13-11.852 0-.58.6-3.404.25-3.738-2.2-2.199-6.93-.179-8.85 1.752M1262.44 103.985c-.67-.312.43.681.64.949.72.96 1.06 2.221 1.25 3.37.55 3.304-1.01 5.87-3.99 7.355-2.89 1.439-5.89.714-8.24-1.619-.8-.803-1.78-1.774-2.36-2.745-.13-.201-1.16-1.573-1.25-1.495-1.02 1.015 2.12 5.122 2.62 5.981 3.37 5.893 8.58 8.962 15.34 7.612 3.17-.637 4.08-6.35 3.62-9.107-.58-3.515-.21-9.151-3.86-10.982-1.23-.613-2.81-.368-4.37-.368M1260.24 90.705c-.95.056.52.558 1.23.759 1.34.38 3.04.134 4.36-.123 1.93-.39 4.27-2.042 5.36-3.493.59-.793 1.62-2.489 1.62-2.489v1.496c0 .915-.28 1.874-.51 2.745-.85 3.37-1.53 4.263-4.48 6.238-.44.29-1.37.056-1.88.123-1.03.145-3.41.949-4.24.123-1.12-1.116-1.77-4.051-2.62-5.736" fill="#B6B6B6"/><path fill-rule="evenodd" clip-rule="evenodd" d="M1302.12 86.631c-.23.034-.6.1-.8.145-.41.079-.76.19-1.03.324-1.68.837-4.07 1.216-5.76 2.344-2.87 1.908-5.86 3.337-8.55 5.122-3 1.998-5.65 4.408-7.52 8.147-1.44 2.89-1.95 6.562-1.88 10.435.09 5.379 1.26 11.149 2.11 15.412.51 2.566 1.54 5.122 1.9 7.745.05.357.46 1.484.62 1.908-.07.748.23 1.507.88 1.987.98.725 2.37.524 3.09-.447.32-.435.58-1.082.48-1.919-.07-.581-.62-2.043-.69-2.232-.39-2.679-1.42-5.279-1.94-7.902-.82-4.051-1.95-9.519-2.03-14.619-.06-3.103.26-6.071 1.42-8.382 1.49-2.968 3.63-4.854 6.01-6.439 2.7-1.785 5.69-3.214 8.56-5.134 1.49-1.004 3.61-1.283 5.14-2.008.23-.034 1.23-.201 1.71-.369.83-.301 1.43-.837 1.76-1.506a2.212 2.212 0 0 0-3.48-2.612ZM1300 80.002Zm-14.05 8.65c3.13-1.05 6.32-2.39 9.34-3.773 1.99-.904 4.02-1.328 6.03-2.187.4-.168.97-.335 1.36-.514.47-.212.84-.48 1.05-.703.81-.837.89-1.74.49-2.634a2.207 2.207 0 0 0-2.91-1.127c-.29.134-.55.313-.75.536-.3.112-.74.268-.98.368-2.05.882-4.11 1.317-6.12 2.232-2.92 1.328-6.01 2.634-9.03 3.638-.13.045-.51.235-.9.447v-.424c-.02-1.206.15-2.478.1-3.572-.35-6.684 1.25-13.023 1.25-19.474 0-1.216-.99-2.21-2.21-2.21s-2.21.994-2.21 2.21c0 6.529-1.6 12.946-1.24 19.709.07 1.306-.2 2.88-.06 4.285.15 1.44.63 2.746 1.67 3.784.53.535 1.33.881 2.37.692.75-.134 2.48-1.128 2.77-1.295l-.02.011ZM1270.43 50.528c.02.447.05 1.34.09 1.663.33 3.226-.52 6.618.02 9.788 1.18 7.097-.17 14.285-.17 21.304 0 1.518.26 3.917.21 6.082-.02 1.072-.06 2.065-.39 2.735-.17.335-.57.413-.98.547-.58.178-1.24.3-1.9.401-1.26.201-2.54.369-3.59.681-1.04.313-1.89.77-2.5 1.384-.86.86-.86 2.265 0 3.125.86.86 2.26.86 3.12 0 .32-.313.87-.357 1.47-.469 1.09-.212 2.32-.346 3.44-.58 2.22-.458 4.06-1.418 4.9-3.114.56-1.127.83-2.801.86-4.631.04-2.188-.21-4.62-.21-6.16 0-7.266 1.33-14.687.11-22.03-.51-3.092.35-6.384.02-9.531-.06-.636-.02-1.953-.26-2.768-.36-1.16-1.13-1.841-2.05-2.065a2.195 2.195 0 0 0-2.67 1.607c-.19.748.03 1.496.51 2.031h-.03ZM1266.81 105.693c-.02.29-.03.569-.03.636 0 1.986.25 3.939.58 5.881.59 3.572 1.18 8.437 1.01 12.812-.1 2.667-.45 5.145-1.36 6.953-.34.692-.51 1.629-.61 2.589a29.54 29.54 0 0 1-.2 1.384c-.74.87-.71 2.176.12 2.991.86.859 2.27.859 3.13 0 .65-.659 1.07-1.674 1.22-2.857.1-.737 0-1.585.29-2.132 2.71-5.413 1.86-15.903.76-22.465-.28-1.685-.51-3.393-.52-5.111.01-.168.1-1.351.05-1.82-.08-.814-.45-1.328-.7-1.573-.83-.826-2.09-1.451-3.53-1.841-1.6-.447-3.47-.648-4.83-.893a2.21 2.21 0 0 0-2.57 1.785 2.208 2.208 0 0 0 1.79 2.567c1.06.19 2.46.346 3.76.636.59.134 1.17.257 1.64.469v-.011Z" fill="#000"/><path fill-rule="evenodd" clip-rule="evenodd" d="M1319.58 95.013h-.16.16Zm-37.54 20.155c-.15-.268-.43-.614-.98-.86.43.19.75.491.98.86Zm-35.35-81.547-1.7.647c-.69.268-1.21.536-1.39.68-3.34 2.5-7.52 4.141-10.11 7.579-1.88 2.5-3.41 5.825-2.61 9.006.22.881 1.25 2.79 1.92 4.453.12.301.24.747.31.993-.38.513-1.07 1.004-1.75 1.529-1.19.915-2.44 1.797-3.16 2.522-3.51 3.504-6.04 8.002-6.86 12.946-1.49 8.917 1.98 16.718 9.82 20.635 1.84.926 4.14.759 6.12 1.093.06 0 .14.012.23.012 0 .245.04.435.07.569.28 1.105.22 2.31.25 3.504.04 1.685.22 3.348.97 4.832 1.3 2.601 3.61 3.817 6.18 4.676.43.134 1.3.335 1.77.424.6 1.63.87 4.353 1.26 5.893.6 2.411 2.21 4.218 4.26 5.558 2.55 1.651 5.82 2.555 8.04 3.292.73.245 2.63.524 4.07.469.88-.034 1.63-.212 2.08-.436l4.35-2.187a2.215 2.215 0 0 0 1.78-2.165c0-1.217-.99-2.21-2.21-2.21-.24 0-.79.09-1.5.391-1.17.502-3.45 1.741-4.27 2.154-.29 0-2.4-.034-2.9-.201-1.64-.547-3.95-1.161-5.98-2.21-1.56-.803-3.01-1.83-3.43-3.515-.49-1.964-.93-5.547-1.8-7.288-.33-.647-.9-1.194-1.71-1.54-.69-.29-1.71-.39-2.39-.614-1.46-.491-2.89-.993-3.63-2.455-.45-.904-.48-1.931-.5-2.957-.03-1.429-.02-2.868-.31-4.197.03-.357.13-1.506.08-1.964a2.639 2.639 0 0 0-.73-1.562c-.32-.324-.86-.659-1.61-.737-.44-.044-1.59.067-1.85.09-.89-.134-1.85-.157-2.79-.246-.67-.056-1.33-.134-1.91-.424-6.03-3.013-8.57-9.084-7.43-15.948.67-4.029 2.77-7.689 5.63-10.546.77-.77 2.22-1.719 3.42-2.7 1.13-.916 2.04-1.898 2.49-2.78.38-.758.45-1.997 0-3.415-.52-1.662-1.83-3.861-2.06-4.798-.47-1.898.73-3.784 1.85-5.28 1.06-1.416 2.49-2.42 3.97-3.358 1.72-1.072 3.51-2.054 5.1-3.226.39-.145 3.19-1.183 3.74-1.529.69-.435.94-.982 1.04-1.283.46-1.373.24-2.924-.27-4.53-.27-.804-.6-1.641-.83-2.456-.13-.502-.25-.993-.16-1.45.58-2.88.33-6.038 1.15-8.896 1.02-3.593 3.97-6.751 7.51-8.95 3.58-2.22 7.81-3.46 11.49-3.002 8.53 1.071 15.93 6.183 22.33 11.673 1.43 1.228 2.38 3.092 3.54 4.554.05.111.55 1.227.85 1.74.41.726.96 1.217 1.42 1.44.6.302 1.45.402 2.41.112.61-.19 1.76-.748 1.93-.837.81-.167 1.71-.368 2.6-.424.62-.045 1.26-.022 1.83.257 2.22 1.105 3.86 3.214 4.97 5.401.29.592.21 1.217.21 1.875-.05.167-.23.96-.25 1.295-.02.513.09.948.25 1.283.38.803 1.02 1.384 2.21 1.384.8 0 1.83-.112 2.83-.112.62 0 1.24 0 1.72.268 5.2 2.98 10.11 9.598 10.95 15.49.65 4.542-1.81 10.111-3.43 14.185-.27.67-1.39 1.997-2.03 3.058-.56.937-.8 1.808-.8 2.377 0 .97.39 1.752 1.11 2.388.38.346 1.35.915 1.55 1.027 1.23 1.852 2.3 3.94 1.71 6.305-1.1 4.42-2.94 7.11-5.72 10.803-.75.993-1.91 1.763-2.83 2.645-.12.067-.72.413-.91.536-.4.267-.64.546-.75.725-.7 1.071-.42 1.964.12 2.656.08.09.18.212.33.335.02.2.05.424.08.513.35 1.808.92 4.04.46 5.871-.42 1.662-1.83 3.392-3.48 4.81-1.71 1.461-3.71 2.622-5.44 2.912-1.49.246-4.22.636-6.66.581-1.22-.023-2.38-.09-3.05-.536-1.05-.692-2.56-1.228-3.53-2.109-.1-.268-.39-.994-.58-1.284-.55-.837-1.31-1.283-2.32-1.283-.53 0-1.14.156-1.68.725-.15.168-.34.436-.5.793-.12.267-.27.781-.34 1.06-.58 1.06-1.86 2.489-2.83 3.214-.37.279-.91.391-1.48.48-1.23.19-2.6.134-3.56 0-.46-.067-2.08-.491-2.47-.547-.56-.089-.92.011-1.05.045-.86.245-1.22.792-1.41 1.238a2.077 2.077 0 0 0 0 1.808c.07.157.27.737 1.15 1.127.26.123.53.179.8.19.55.134 1.95.458 2.34.514 1.32.189 3.19.256 4.87 0 1.36-.212 2.6-.659 3.47-1.306.97-.726 2.14-1.953 3.05-3.147 1.12.826 2.54 1.462 3.61 2.176.95.636 2.37 1.049 4.01 1.205 3.02.279 6.92-.234 8.88-.558 2.4-.402 5.24-1.886 7.6-3.917 2.41-2.065 4.29-4.687 4.89-7.098.61-2.433.06-5.412-.42-7.812-.04-.167-.07-.424-.13-.714 1.07-1.06 2.41-1.998 3.29-3.18 3.19-4.23 5.22-7.344 6.48-12.388.92-3.706-.46-7.042-2.39-9.944-.31-.48-.78-.893-1.33-1.239l-.1-.067c.18-.29.37-.602.55-.848.67-.97 1.31-1.93 1.55-2.489 1.87-4.71 4.45-11.204 3.69-16.45-1-7.108-6.86-15.121-13.13-18.704-.91-.524-2.02-.77-3.18-.837a13.77 13.77 0 0 0-1.36 0c-.03-1.16-.15-2.232-.67-3.292-1.52-3.036-3.89-5.86-6.95-7.388-2.27-1.138-5.07-.647-7.36-.19-.26.045-.86.302-1.39.525-.26-.536-.58-1.139-.77-1.373-1.33-1.674-2.5-3.783-4.15-5.2-7.05-6.05-15.26-11.54-24.66-12.712-4.6-.58-9.9.86-14.37 3.627-4.51 2.79-8.14 6.92-9.45 11.495-.84 2.98-.63 6.25-1.22 9.24-.28 1.418.03 2.947.54 4.476.27.792.59 1.585.78 2.355.04.111.06.223.08.334l-.01-.033Z" fill="#000"/><path fill-rule="evenodd" clip-rule="evenodd" d="m1289.99 63.117-.8-.413c-1.42-.759-3.11-1.83-3.78-3.348-1.22-2.745-2.89-7.042-2-10.145.55-1.908 1.37-3.66 1.92-5.59.33-1.172-.35-2.4-1.52-2.735a2.209 2.209 0 0 0-2.73 1.518c-.55 1.93-1.39 3.683-1.93 5.591-1.14 4.007.64 9.62 2.21 13.158 1.06 2.377 3.52 4.263 5.74 5.457.16.09 1.02.603 1.79.926.58.235 1.13.369 1.54.39 1.08.057 1.82-.434 2.26-1.07.33-.47.65-1.217.29-2.366a2.208 2.208 0 0 0-2.76-1.462c-.08.022-.16.056-.24.089h.01Z" fill="#000"/><path fill-rule="evenodd" clip-rule="evenodd" d="m1264.94 50.138-.06.022h.02l.04-.022Zm-.07.033-.09.045.06-.023.03-.022Zm-.09.045-.09.033.07-.022h.02v-.011Zm-.1.033-.1.034.1-.034Zm-.07-4.151a2.146 2.146 0 0 0-1.4-.011c-.84.267-1.14.758-1.28.993-.28.457-.35.915-.31 1.35.05.547.27 1.239 1.11 1.73.15.09.48.246.93.313.33.044 1.01.066 1.31.066.82 0 1.56-.323 2.37-.524 1.91-.48 3.89-.748 5.78-1.306 6.01-1.808 12.04-4.33 16.51-8.805.86-.86.86-2.266 0-3.125a2.21 2.21 0 0 0-3.12 0c-3.96 3.962-9.34 6.105-14.67 7.7-1.83.547-3.72.793-5.59 1.262-.44.111-.83.39-1.29.39h-.36l.01-.033ZM1304.94 74.389a2.205 2.205 0 0 0 1.24-2.288c-.16-1.205-1.28-2.053-2.5-1.897-1.14.156-2.09.893-2.7 2.154-.62 1.339-.77 3.56-.9 4.453-.58 4.084 1 7.756 2.91 11.204.57 1.005 1.24 2.254 2.09 3.237.77.881 1.68 1.573 2.73 1.92 1.15.39 2.41-.246 2.79-1.396.39-1.16-.23-2.41-1.39-2.801-.44-.145-.75-.547-1.05-.949-.51-.692-.93-1.495-1.3-2.153-1.45-2.6-2.84-5.335-2.4-8.426.06-.425.1-1.228.24-2.043.04-.301.18-.759.24-1.004v-.011ZM1257.38 102.903a2.223 2.223 0 0 0-.73 2.823 2.21 2.21 0 0 0 2.97.993c1-.502 1.53-1.216 1.85-2.053.18-.469.18-1.027.42-1.507 1.23-2.455 1.58-6.964.67-9.664-.14-.424-.91-1.897-1.14-2.31a2.202 2.202 0 0 0-1.42-1.998 2.221 2.221 0 0 0-2.86 1.283c-.17.436-.25 1.094-.02 1.864.22.759 1.06 2.031 1.24 2.556.59 1.763.36 4.698-.44 6.294-.23.48-.47 1.373-.55 1.73l.01-.011Z" fill="#000"/><path fill-rule="evenodd" clip-rule="evenodd" d="M214.999 64.466c-1.496-.493-1.382-2.33-1.894-3.732-.682-1.865-1.714-3.096-1.96-5.104-.985-7.908-.114-15.323 4.972-21.867 2.112-2.709 5.502-4.584 7.86-6.942 3.249-3.248 10.01-5.341 14.405-3.144 1.714.862 3.257 1.127 4.981 1.705.635.208 1.477.804 1.96 1.05.237.114.966.19.786 0-.568-.567-1.467-1.4-2.225-1.836-5.199-2.965-11.346-4.461-17.283-3.277-2.576.511-4.745 2.718-7.198 3.532-3.693 1.231-8.069 5.133-9.821 8.647-1.344 2.69-3.068 5.928-3.665 8.902-1.704 8.523 1.894 18.685 9.3 22.397M234.868 82.933c-1.373-1.695-3.097 1.543-3.826 2.424-2.832 3.39-5.872 6.771-8.249 10.342-.511.767-2.414 3.097-2.092 4.063.179.549 1.666.217 1.96.132 1.998-.568 3.674-1.411 5.237-2.746 4.12-3.523 6.288-8.93 6.288-14.272M242.689 43.896c-1.099-.227-2.785.436-2.349 2.169.426 1.723 1.354 3.362 1.705 5.104.435 2.15-.133 4.28-.133 6.412 0 1.155-.076 3.816 1.439 4.195 2.245.559 2.472-3.646 2.614-4.972.474-4.262.474-11.023-3.93-13.23M214.839 80.972c-.89.341-1.884-.16-2.907.455-1.478.89-2.226 2.557-3.144 3.93-3.031 4.546-4.622 8.807-5.891 13.883-.578 2.302.398 4.868 1.051 6.81.095.274 1.468 3.153 1.175 3.011-5.559-2.784-7.198-11.535-4.584-16.762 1.496-2.993 4.101-5.285 6.421-7.596 2.093-2.102 4.801-5.237 7.86-5.237M279.289 73.406c-1.639-.303.379-1.118 1.127-1.411 1.714-.682 3.864-.56 5.635-.919 3.182-.634 9.764-5.56 12.567-2.746.918.918-3.883 3.362-4.319 3.532-3.911 1.563-8.419 4.006-12.576 2.623-.682-.227-2.311-.085-2.747-.52" fill="#FEB611"/><path fill-rule="evenodd" clip-rule="evenodd" d="M252.255 53.499c.047.88 2.045 1.98 2.623 2.652 2.197 2.51 5.057 4.962 6.156 8.248 2.822 8.457-.616 18.098-3.145 25.665-.454 1.373-2.263 6.44-3.409 7.197-1.383.928-3.892.313-5.37.133-3.163-.398-6.43-1.099-9.432-2.093-1.155-.388-2.567-.104-3.665-.654-.777-.388-4.385-2.992-1.96-3.797 1.562-.521 3.409.691 4.848 1.051 4.565 1.137 10.872 4.063 13.486-1.174 2.301-4.593 1.809-9.338 3.012-14.14.492-1.97 1.865-5.634 1.307-7.595-.692-2.415-3.23-6.117-4.849-7.727-1.62-1.61-3.608-2.444-4.319-4.584-.236-.72-1.278-4.877-.521-5.635.805-.805 5.796 2.775 6.942 3.532.313.209 1.705 1.08 1.705 1.44M249.016 105.719c-.227.085 2.813 1.325 3.239 1.496 1.998.833 4.536 2.623 5.758 4.451 2.5 3.75 3.835 8.949 4.318 13.353.19 1.714-.284 3.836.133 5.502.161.644 1.174 5.768.388 6.156-.729.369-5.701 1.297-6.023.653-1.165-2.329-.17-6.894-.653-9.565-.682-3.75 0-8.618-1.175-12.178-.805-2.406-1.184-5.398-1.184-7.984M267.387 84.06c-.085-.17-.199-.739-.199-.54 0 2.074-.625 6.288 1.961 6.81 4.555.908 9.584-2.122 13.485-3.799.985-.426 4.347-.416 4.982-1.05.142-.143-1.8-.635-1.961-.654-1.676-.237-3.418-.521-5.104-.654-2.434-.189-5.607.18-7.984.654-2.074.416-4.403-.654-6.544-.654M263.958 61.965c-1.307-.407 1.856.389 2.443.464 2.235.322 4.698.18 6.81-.52.966-.322 2.746-.521 2.225-2.093-.511-1.516-2.367-1.771-3.532-2.358-.531-.266-1.25-1.127-1.961-1.307-2.443-.606-5.246 5.18-6.155 6.544" fill="#FEB611"/><path fill-rule="evenodd" clip-rule="evenodd" d="M293.907 90.026c-1.487-.852-4.215 1.913-5.825 2.519-6.705 2.52-12.093 5.824-12.093 13.287 0 2.197.615 4.745 2.509 6.108 2.027 1.449 4.906.843 6.459-.719.53-.531.796-1.838 1.44-2.16.994-.502 3.077.142 4.185 0 2.084-.265 3.239-1.742 4.792-2.509.427-.209 2.576.483 3.23.483 2.263 0 5.9-.436 7.898-1.44 5.834-2.917 10.635-6.657 14.603-11.61 1.118-1.402 2.917-3.39 3.353-5.143.388-1.553 1.184-3.078.843-4.792-.19-.956-2.027-2.888-1.317-3.949 1.639-2.453 3.23-4.925 2.15-8.144-1.591-4.783-3.684-8.827-6.819-11.971-.255-.256-.132-1.506-.236-1.913-.417-1.648-.54-3.656-1.44-5.142-2.055-3.429-4.896-6.933-7.784-9.812-2.851-2.85-6.44-4.678-10.058-6.222-1.392-.596-2.756-1.08-4.186-1.553-.256-.085-1.506.284-1.439.36.142.142.009-1.364 0-1.44-.209-1.032-1.108-2.433-2.036-2.992-3.457-2.074-5.304-5.436-9.461-6.828-1.023-.341-4.186-1.496-5.266-.957-.776.389-3.617 3.088-4.186 2.51-.36-.36-1.458-.483-2.036-.72-3.362-1.345-8.069-2.377-11.61-.956-2.643 1.06-5.569 2.898-7.785 4.792-.379.322-2.292 1.42-2.87.833-.776-.776-.161-2.244.36-3.116 1.383-2.3 2.036-4.12 4.309-5.748 1.932-1.373 4.982-.966 7.179-.597 4.962.824 8.807 1.894 13.164 4.073 1.145.568 4.252-1.544 5.502-1.8 2.85-.568 7.747-1.089 10.417.237 1.184.596 3.447 2.699 4.072 3.949 1.08 2.15.786 5.569 2.51 7.302.18.18 1.013-.322 1.193-.36a24.556 24.556 0 0 1 4.792-.483c2.349 0 3.684 1.041 5.749 1.553 1.97.492 4.091.91 5.748 2.16 1.326.994 1.364 2.85 2.036 4.185 2.046 4.091 1.478 9.934 2.993 14.48.35 1.042.341 3.57 1.08 4.31 1.25 1.25 4.223 2.234 5.142 4.071 1.222 2.453 2.813 4.679 3.476 7.302.397 1.591-1.572 6.014-2.273 7.425-.351.7-1.553 2.14-1.553 3.115 0 .881 2.017 2.813 2.396 3.95.805 2.396 1.24 4.337 1.676 6.941.066.38.407 2.586 0 2.993-2.472 2.472-4.034 7.643-7.302 9.811-.795.531-2.377.398-3.352.72-3.874 1.288-7.936 2.188-11.971 2.993-2.727.549-6.392-.976-8.854-1.8-.483-.161-1.412-.767-1.913-.596-.853.284-1.667 1.316-2.273 1.913-.777.776-2.841 1.155-3.949 1.316-.436.066-1.487.332-1.913.123-.228-.113-1.487-1.155-1.677-.956-.805.805-.35 3.068-1.676 3.949-4.745 3.163-7.5 3.731-12.567 1.193-.682-.341-1.847-.407-2.396-.956-1.364-1.364-1.269-4.366-1.44-6.222-.161-1.771-1.098-6.412-.236-8.135.786-1.573 3.987-2.463 5.502-3.116 6.288-2.7 11.326-5.749 18.192-5.749" fill="#B6B6B6"/><path fill-rule="evenodd" clip-rule="evenodd" d="M298.024 71.957c-.985-.483-1.866.805-2.283 1.553-.994 1.8-3.542 6.8-2.509 8.855.795 1.59.729 3.115 2.159 4.545.218.218 2.339 2.718 2.036 2.87-.417.208-1.638-.02-2.036-.123-5.824-1.459-14.859-8.467-7.785-14.367 2.927-2.434 7.302-1.913 10.654-3.59" fill="#B6B6B6"/><path fill-rule="evenodd" clip-rule="evenodd" d="M277.415 61.823c-.833-1.032-2.405 2.737-2.746 3.42-1.44 2.878-3.694 8.608-1.44 11.61 1.781 2.368 5.37 4.943 8.145 5.862.909.303 1.894.237 2.869.237.18 0 1.516.16 1.44.237-.587.587-3.239.842-4.072.842-2.567 0-5.739-.502-8.259 0-1.24.247-3.248.35-4.432-.123-2.121-.843-1.676-4.915-1.676-6.705 0-1.221-.606-3.456.123-4.546 1.25-1.875 3.703-3.286 5.029-5.265a43.563 43.563 0 0 1 5.502-6.705" fill="#B6B6B6"/><path fill-rule="evenodd" clip-rule="evenodd" d="M270.077 46.889c-.132.075-.672.047-.435-.2.038-.037 2.168 3.164 2.396 3.476 1.022 1.355 1.903 3.24 3.229 4.31 1.724 1.373 3.57 2.49 5.152 4.072.691.69 4.479 1.865 3.229 3.115-1.875 1.876-3.968.17-6.108-.36-1.534-.388-3.315-.823-4.783-1.553-.568-.284-.899-1.297-1.193-1.799-1.127-1.875-2.348-3.693-2.992-5.625-.597-1.79 1.079-4.044.596-5.986" fill="#B6B6B6"/><path fill-rule="evenodd" clip-rule="evenodd" d="M244.243 42.845c-.199.038-.767-.218-.569-.218.199 0 .72.748.843.843 1.156.871 2.273 1.809 3.466 2.633 3.088 2.14 6.421 4.593 9.821 6.108 2.178.966 5.237 2.292 7.425.843.833-.55 2.131-2.67 2.756-3.713.379-.634.596-2.15.596-2.15s.284 2.397.483 3.59c.427 2.547.891 5.123-.719 7.538-1.099 1.648-3.826 4.47-6.109 3.713-2.14-.71-3.456-3.817-5.028-5.389-2.056-2.055-4.631-3.77-7.065-5.389-1.279-.852-2.747-.947-3.826-2.036-1.449-1.449-2.036-3.968-2.51-5.862M247.62 58.887c0-.748 1.563 1.932 1.676 2.17.654 1.316 1.676 3.939 1.676 5.388 0 6.146.55 11.506-1.439 17.473-.455 1.373-1.279 4.072-2.396 4.905-2.093 1.572-6.828 1.695-9.338 1.193-1.061-.208-3.362.474-4.186-.36l.597.124c.426.17.881.218 1.316.36 1.194.397 2.368.767 3.59 1.08 2.907.728 5.35 1.192 8.258 1.552 1.117.142 2.538 1.231 3.712.834.436-.142 1.762-.209 2.036-.483.682-.682.616-2.453.843-3.353.53-2.14.767-4.3 1.193-6.468.862-4.3 2.036-8.107 2.036-12.567 0-1.051.37-3.04-.236-3.95-1.307-1.96-3.826-3.465-5.503-5.142-1.619-1.61-3.428-4.432-5.985-4.432M228.88 98.057c-.966-.047 1.506.7 1.866.938 1.61 1.07 3.135 2.121 4.669 3.352 3.182 2.548 8.561 3.722 10.294 7.179.417.833-.653 2.017-.833 2.755-.124.493-.872 1.478-1.194 1.913-5.843 7.794-21.223 10.19-29.083 4.073-2.519-1.961-4.745-4.148-6.942-6.346-.426-.426-1.856-2.272-2.509-2.272-.597 0-.105 1.24.123 1.799.7 1.761 2.083 3.154 2.992 4.782 2.406 4.338 4.404 11.516 10.058 12.928 8.277 2.064 18.363-.285 24.301-6.223 1.562-1.562 2.386-4.185 3.826-5.625.814-.814 2.093.332 2.632.597 1.715.862 4.347 3.551 6.346 1.553 1.467-1.468-.9-7.084-1.317-8.741-.18-.729.095-1.847-.237-2.51-1.041-2.083-6.231-3.333-8.381-4.186-6.515-2.604-13.078-4.84-19.745-7.065" fill="#B6B6B6"/><path fill-rule="evenodd" clip-rule="evenodd" d="M269.756 100.585c5.37-2.708 10.484-5.606 16.317-7.358 1.326-.398 3.694-.88 5.285-1.771 1.032-.578 1.79-1.335 2.168-2.207a1.877 1.877 0 0 0-.984-2.462 1.871 1.871 0 0 0-2.463.985c-.047.123-.189.19-.312.275a4.494 4.494 0 0 1-.739.388c-1.345.587-3.03.91-4.034 1.203-6.26 1.875-11.734 5-17.511 7.888-.682.341-1.136.92-1.354 1.677-.199.7-.104 1.685-.104 2.263 0 1.913.407 4.195.038 6.061-.322 1.601-.143 3.419.066 5.029.218 1.733-.066 3.428.274 5.152.588 2.917.275 6.326.37 9.622.104 3.845.757 7.538 3.21 10.455a1.876 1.876 0 0 0 2.86-2.425c-1.903-2.254-2.244-5.161-2.329-8.135-.095-3.513.189-7.15-.436-10.256-.322-1.629-.028-3.239-.227-4.877-.152-1.222-.351-2.605-.105-3.826.417-2.093.038-4.66.038-6.8 0-.189-.019-.578-.028-.871v-.01ZM269.611 82.336v-.18c0-1.326.114-2.775-.104-4.072-.085-.53-.388-1.904-.426-2.065.739-2.831 3.106-5.587 4.792-7.993 1.184-1.695 1.951-3.75 3.381-5.18a1.88 1.88 0 0 0 0-2.652 1.88 1.88 0 0 0-2.652 0c-1.582 1.582-2.491 3.807-3.807 5.683-1.941 2.774-4.565 6.042-5.379 9.309-.104.407-.123.91-.057 1.458.085.692.35 1.516.436 2.065.18 1.098.056 2.33.056 3.447 0 .379-.066 1.222.038 1.686.114.52.351.89.597 1.136.455.455 1.203.824 2.15 1.014 1.231.236 2.917.18 3.703.274 2.623.332 5.038-.464 7.623-.748 1.932-.218 4.025.246 5.948.445a1.873 1.873 0 0 0 2.055-1.676 1.873 1.873 0 0 0-1.677-2.055c-2.178-.218-4.555-.682-6.742-.436-2.292.256-4.423 1.042-6.743.758-.559-.067-1.591-.057-2.576-.133a8.088 8.088 0 0 1-.625-.085h.009ZM268.194 54.133a1.857 1.857 0 0 1 0 0Zm3.343 1.184c.237-.294.388-.663.407-1.06a1.679 1.679 0 0 0-.104-.72 1.797 1.797 0 0 0-1.099-1.137c-.161-.057-1.373-.502-2.235.701-.208.294-1.297 2.15-1.629 2.709-.454.757-1.145 2.007-1.979 3.002-.256.312-.53.606-.814.824-.114.085-.313.189-.37.208-.625-.152-1.221-.843-1.856-1.496-1.004-1.042-1.96-2.178-2.727-2.794-2.5-1.998-5.124-4.177-7.87-5.89-1.364-.853-2.879-1.355-4.016-2.491a1.88 1.88 0 0 0-2.651 0 1.88 1.88 0 0 0 0 2.651c1.335 1.336 3.078 2.018 4.678 3.021 2.614 1.639 5.124 3.732 7.51 5.645.833.672 1.894 2.036 3.002 3.096 1.061 1.014 2.197 1.753 3.239 1.96 1.127.228 2.282-.103 3.343-.918 1.553-1.184 2.955-3.589 3.731-4.886.275-.455 1.26-2.122 1.44-2.415v-.01ZM259.168 138.467c0-.218.095-2.055.095-2.661 0-1.885-.18-3.665-.54-5.465-.114-.587 0-1.259.029-1.913.018-.757-.029-1.496-.247-2.159-.142-.417-.104-.919-.094-1.402 0-.558 0-1.108-.076-1.619-.332-2.32-.568-4.754-1.023-7.036-.275-1.393-.312-2.851-.549-4.234-.303-1.78-.909-3.437-2.302-4.83-2.263-2.263-6.278-3.371-9.262-4.867-2.263-1.127-4.46-2.311-6.903-3.04-1.951-.587-3.817-1.45-5.692-2.197-.54-.218-1.118-.654-1.705-.957-.71-.37-1.449-.597-2.168-.597a1.88 1.88 0 0 0-1.876 1.876 1.88 1.88 0 0 0 1.876 1.875c.341 0 .644.284.975.483.511.312 1.023.615 1.496.805 1.98.795 3.949 1.695 6.005 2.31 2.225.673 4.233 1.771 6.297 2.804 1.43.719 3.126 1.326 4.735 2.026 1.345.587 2.643 1.222 3.552 2.141.805.805 1.079 1.79 1.259 2.812.247 1.421.285 2.917.569 4.338.445 2.216.663 4.574.985 6.837.17 1.165-.038 2.567.331 3.675.161.483.047 1.051.019 1.61-.038.691-.038 1.382.085 2.007.313 1.554.464 3.097.464 4.726 0 .691-.189 1.923-.094 2.879.075.796.322 1.459.672 1.913a1.873 1.873 0 0 0 2.633.341 1.885 1.885 0 0 0 .454-2.472v-.009ZM234.784 88.321l.028.02h-.019l-.009-.02Zm16.147 3.021a41.808 41.808 0 0 1-1.449-.246c-3.467-.691-6.98-1.23-10.446-1.922-1.108-.218-2.188-.228-3.267-.654-.237-.094-1.402-.558-1.743-.634-.379-.085-.653-.048-.805-.029a1.852 1.852 0 0 0-1.222.767c-.322.455-.52 1.052-.198 1.828.056.133.217.55.871.966.293.18.615.275.937.294l.767.293c1.298.521 2.586.578 3.921.853 3.466.691 6.97 1.23 10.446 1.922.862.17 1.724.256 2.585.464.171.067.635.237.881.284.294.067.54.067.72.048a1.912 1.912 0 0 0 1.184-.56c.246-.245.558-.719.625-1.439.047-.483-.057-1.657-.076-1.913.341-2.339.975-4.593 1.241-6.96.161-1.468.786-2.889.994-4.366.284-1.98.398-3.997.947-5.938.294-1.023.795-2.216 1.061-3.4.236-1.06.293-2.112.047-3.087-.303-1.222-1.174-2.197-1.904-3.173-1.808-2.415-3.608-5.218-5.691-7.301-.445-.445-1.023-.872-1.572-1.326-.294-.237-.587-.474-.748-.777a1.88 1.88 0 0 0-3.362 1.677c.312.625.795 1.193 1.363 1.695.55.492 1.194.918 1.658 1.382 1.969 1.97 3.636 4.631 5.341 6.904.435.587 1.089 1.099 1.269 1.838.142.577-.01 1.212-.19 1.837-.265.947-.644 1.884-.88 2.708-.606 2.103-.748 4.29-1.061 6.43-.218 1.525-.843 2.984-1.013 4.49-.265 2.367-.909 4.621-1.25 6.96v.095l.019-.01Z" fill="#000"/><path fill-rule="evenodd" clip-rule="evenodd" d="m248.011 54.19.029.02h-.019l-.019-.02h.009Zm.502.36a1.878 1.878 0 0 0-3.182 1.97c-.019-.038-.038-.085-.038-.085s.265.52.445.7c.133.133.313.313.748.493a1.877 1.877 0 0 0 2.018-3.078h.009ZM267.33 46.349c-.18.379-.19.682-.171.862a1.85 1.85 0 0 1 .171-.862Zm3.371 1.657c.369-.72.208-1.174.199-1.231a1.797 1.797 0 0 0-.672-1.136 1.784 1.784 0 0 0-1.108-.408c-.161 0-.938-.075-1.563.748a4.318 4.318 0 0 0-.445.824 2.596 2.596 0 0 0-.171.862c0 .559.067 1.108.142 1.667.228 1.828.474 3.74 1.44 5.341 2.368 3.94 5.55 7.397 10.275 8.183 1.326.217 2.605.52 3.94.142a1.88 1.88 0 0 0 1.288-2.32 1.88 1.88 0 0 0-2.32-1.288c-.786.227-1.516-.105-2.292-.237-3.599-.597-5.881-3.41-7.681-6.412-.691-1.155-.767-2.566-.928-3.883a12.991 12.991 0 0 1-.094-.852h-.01Z" fill="#000"/><path fill-rule="evenodd" clip-rule="evenodd" d="M241.78 45.203c.104.151.378.568.511.862.417.88.758 1.856.994 2.377 1.819 3.94 1.696 8.93-.227 12.775a1.878 1.878 0 1 0 3.362 1.677c2.405-4.82 2.557-11.09.275-16.024-.37-.796-.966-2.567-1.705-3.656-.625-.909-1.402-1.44-2.14-1.59a1.874 1.874 0 0 0-1.07 3.58ZM296.813 87.08c-.199.133-.417.048-.635.02-.483-.048-.985-.114-1.496-.114-.701 0-1.279-.047-1.923-.303-.653-.265-1.345-.379-1.932-.796-3.182-2.225-2.765-6.458-1.932-9.792a1.876 1.876 0 0 0-1.363-2.273 1.869 1.869 0 0 0-2.273 1.364c-1.184 4.745-1.108 10.607 3.428 13.77.833.578 1.761.833 2.69 1.203 1.108.445 2.092.568 3.314.568.692 0 1.354.151 1.989.142.748-.019 1.477-.19 2.178-.644a1.868 1.868 0 0 0 .549-2.595 1.869 1.869 0 0 0-2.594-.55Z" fill="#000"/><path fill-rule="evenodd" clip-rule="evenodd" d="M281.473 72.477c-.123-.066-1.117-.54-1.524-.653a2.388 2.388 0 0 0-1.355 0 1.87 1.87 0 0 0-1.174 2.377c.246.73.89 1.203 1.61 1.27.275.122 1.118.52 1.373.586 1.478.426 3.296.758 4.821.758.871 0 1.695-.341 2.538-.455 2.737-.34 4.972-.937 7.462-2.178 1.033-.511 1.913-1.401 2.879-2.046a1.877 1.877 0 1 0-2.083-3.125c-.843.559-1.582 1.374-2.481 1.819-2.084 1.041-3.959 1.524-6.251 1.808-.691.086-1.364.427-2.074.427-1.184 0-2.585-.275-3.741-.597v.01ZM222.537 98.076a1.859 1.859 0 0 0-1.6 1.458 1.876 1.876 0 0 0 1.42 2.245c.247.057.587.076.985-.01.36-.085.947-.35 1.193-.464 1.582-.701 2.842-1.723 4.054-2.945 1.06-1.06 2.273-2.008 3.267-3.144 2.709-3.087 4.328-7.453 4.328-11.526a1.88 1.88 0 0 0-1.875-1.875 1.88 1.88 0 0 0-1.875 1.875c0 3.201-1.279 6.62-3.4 9.054-.938 1.08-2.093 1.96-3.097 2.964-.881.881-1.78 1.658-2.926 2.169l-.464.208-.01-.01Z" fill="#000"/><path fill-rule="evenodd" clip-rule="evenodd" d="M272.198 24.624c.152.246.568.871.881 1.117.341.265.852.493 1.543.36.18-.038.436-.113.72-.265.275-.151.834-.578.957-.672.729-.483 1.685-.843 2.481-1.184 1.818-.786 4.281-.682 6.194-.464.871.104 1.846-.076 2.642.35 2.453 1.307 3.977 3.618 4.972 6.165.322.815.539 1.582.672 2.434a1.834 1.834 0 0 0-.18 1.108c.01.105.038.209.066.322 0 .067-.009.123-.009.161 0 .294.076.521.142.692.199.502.53.795.871.975.332.18.701.265 1.137.208.208-.028 1.079-.369 1.572-.757.246-.19.426-.398.559-.597l2.462-.322c4.271-.559 7.747.436 10.635 3.75 3.04 3.485 5.635 9.215 6.468 13.742.36 1.932.673 3.873.928 5.824-.009.246-.066 1.468.019 1.96.123.74.512 1.203.815 1.44.274.208.644.379 1.098.445.351.047 1.146-.038 1.345-.057.152.02.313.142.483.246.294.18.568.408.739.597 1.809 2.074 2.869 5.266 3.106 8.448.227 3.125-.303 6.278-1.913 8.362-.313.398-.559 1.013-.303 1.818.076.218.227.559.502.919.407.54 1.383 1.515 1.487 1.629.824.947 1.354 1.761 1.638 2.964 1.013 4.347-.312 10.398-3.154 13.789-5.578 6.648-14.603 7.548-22.738 6.61-1.098-.123-2.301-.492-3.324-.947-.18-.133-1.184-.824-1.6-1.051-.616-.332-1.146-.341-1.402-.303a1.847 1.847 0 0 0-1.269.729 2.726 2.726 0 0 0-.341.606c-.076.18-.218.597-.303.852-.275.209-.521.427-.777.635-.255.208-.511.417-.947.473-1.06.142-2.007-.104-3.021-.359-.17-.067-1.42-.578-1.647-.654a1.852 1.852 0 0 0-2.122.625c-.189.246-.36.587-.435 1.032-.057.341-.019 1.232 0 1.516-.673 1.676-2.52 3.163-4.082 3.778-1.733.682-4.764.048-6.374-.795-.464-.237-1.411-.966-2.187-1.335-.758-.37-1.478-.455-1.98-.36a1.883 1.883 0 0 0-1.515 2.178c.161.89.919 1.515 1.79 1.543.284.18 1.724 1.09 2.15 1.307 2.386 1.241 6.904 1.97 9.48.957 2.462-.966 5.284-3.438 6.269-6.09 1.383.341 2.699.569 4.157.379 1.08-.142 1.838-.54 2.51-1.032.407-.303.767-.672 1.231-.985.142-.095.313-.246.474-.445.142.085.246.152.293.17 1.383.635 3.04 1.127 4.537 1.298 9.347 1.08 19.622-.284 26.043-7.927 3.523-4.195 5.199-11.677 3.94-17.056-.436-1.865-1.203-3.135-2.491-4.602a31.676 31.676 0 0 0-.72-.777c1.525-2.661 2.14-6.194 1.885-9.736-.303-4.034-1.733-8.02-4.016-10.644-.729-.833-2.301-1.875-3.579-2.093v-.464a122.167 122.167 0 0 0-.966-6.118c-.947-5.114-3.893-11.592-7.33-15.531-3.798-4.347-8.334-5.73-13.95-5l-2.614.34a14.662 14.662 0 0 0-.701-2.216c-1.326-3.371-3.438-6.364-6.695-8.097-1.213-.644-2.662-.616-3.987-.767-2.51-.294-5.72-.284-8.107.748-.843.36-1.828.767-2.661 1.25a2.432 2.432 0 0 0-.512-.388c-4.697-2.51-9.659-4.82-15.266-4.091a1.882 1.882 0 0 0-1.619 2.102 1.882 1.882 0 0 0 2.102 1.62c4.726-.616 8.883 1.477 12.852 3.589l-.01.019Z" fill="#000"/><path fill-rule="evenodd" clip-rule="evenodd" d="M248.087 23.639a1.882 1.882 0 0 0 .378 2.585 1.882 1.882 0 0 0 2.633-.34c.237-.313.426-.683.559-1.07l.199-.588c2.007-1.922 4.119-2.69 6.923-3.144a1.883 1.883 0 0 0 1.562-2.15 1.883 1.883 0 0 0-2.15-1.562c-3.674.587-6.411 1.676-9.053 4.252a3.31 3.31 0 0 0-.729 1.089c-.124.284-.313.852-.332.928h.01Z" fill="#000"/><path fill-rule="evenodd" clip-rule="evenodd" d="M211.984 65.413c-.388.416-.701.88-.862 1.326-.719 2.083-1.032 4.375-.984 6.581.037 2.055.909 3.807 1.856 5.512-1.07.54-2.141 1.373-2.946 2.065-4.687 4.1-9.612 9.034-10.853 15.446-.672 3.475.398 9.044 3.097 11.544.407.379.966.71 1.544 1.023.132.076.275.132.407.189a1.915 1.915 0 0 0-.132.54c-.086 1.307.028 2.926.359 4.214 1.184 4.556 3.571 8.817 6.971 12.084.88.843 2.102 2.226 3.163 2.775 9.527 4.963 23.335 2.557 30.987-4.924 1.221-1.194 2.168-2.785 2.689-4.432.18.142.313.236.398.284 2.244 1.269 5.294 2.424 7.642 2.121a1.884 1.884 0 0 0 1.62-2.102 1.877 1.877 0 0 0-2.103-1.62c-1.619.209-3.655-.738-5.218-1.619-.236-.209-1.809-1.572-2.443-1.866-1.241-.559-2.14-.057-2.614.559-.274.35-.473.814-.587 1.335-.104.493-.076 1.099-.189 1.515-.322 1.156-.957 2.292-1.809 3.126-6.582 6.43-18.439 8.551-26.631 4.28-.795-.416-1.638-1.524-2.301-2.159-2.898-2.784-4.925-6.43-5.938-10.323-.218-.833-.303-1.875-.265-2.765.113-.208.322-.597.388-.805.199-.682.133-1.316-.275-1.932-.378-.559-.956-1.032-1.638-1.43-.511-.293-1.108-.511-1.477-.852-1.885-1.743-2.434-5.654-1.961-8.069 1.08-5.588 5.55-9.754 9.641-13.334.692-.597 1.639-1.43 2.529-1.705.274-.085.966-.199 1.363-.388a2.29 2.29 0 0 0 .853-.682c.227-.294.587-.91.284-1.809-.114-.312-.938-1.525-1.08-1.79-.719-1.288-1.543-2.557-1.581-4.12-.038-1.751.199-3.56.757-5.218a6.51 6.51 0 0 1 .455-.407c.303-.085.814-.255 1.004-.388.615-.445.937-1.051.824-1.913-.038-.322-.218-.843-.682-1.335-.483-.512-1.648-1.298-1.904-1.497-1.401-1.08-2.613-3.144-3.418-4.687-4.452-8.476-3.637-17.094 1.913-24.898 4.422-6.212 13.476-11.175 21.279-9.906 3.353.55 6.137 1.08 9.158 2.49.729.342 1.421.73 1.979 1.327.332.36.597.786.938 1.098.493.455 1.07.767 1.818.862.588.066 1.203-.095 1.752-.578.559-.502 1.118-1.865 1.279-2.339a1.875 1.875 0 0 0-1.165-2.386 1.88 1.88 0 0 0-2.065.587c-.852-.852-1.856-1.459-2.945-1.96-3.352-1.563-6.43-2.188-10.143-2.794-9.129-1.487-19.783 4.176-24.944 11.44-6.421 9.025-7.33 19.007-2.179 28.818 1.014 1.932 2.614 4.47 4.376 5.853l.009.038Z" fill="#000"/><path fill-rule="evenodd" clip-rule="evenodd" d="M79.459 146.025c-.11-.038-.305-.096-.388-.184-.206-.221.626.004.912-.106.79-.316 1.56-.512 2.205-1.116 1.239-1.157.797-4.033.252-5.379-.418-1.042-1.036-2.52-1.7-3.416-2.113-2.83-6.697-4.032-9.675-5.649-1.337-.731-4.191-2.431-5.805-2.092-.491.104.111 1.015.3 1.484.444 1.069 1.45 2.208 2.28 3.016 1.185 1.154 1.97 2.508 3.024 3.744 1.722 2.011 3.714 3.621 5.189 5.847.692 1.043 2.003 1.277 2.797 2.126.388.416.64 1.05 1.07 1.51" fill="#FEB611"/><path fill-rule="evenodd" clip-rule="evenodd" d="M79.537 145.711c-.067-.045-.548-.25-.544-.37.005-.137 1.341-.143 1.479-.155 1.746-.232 3.542-.393 5.277-.762 4.159-.895 10.15-1.77 12.786-5.44.953-1.33.987-4.318 1.042-5.952.012-.351-.144-2.301.086-2.516.044-.041 1.16.142 1.254.146.745.025 1.679-.251 2.228-.764 3.009-2.818 3.73-7.899 5.23-11.685.834-2.113 2.018-3.915 2.937-5.991.074-.169.867-2.069 1.012-2.064.095.003.358 1.057.38 1.17.285 1.697-.203 3.453-.492 5.131-.741 4.412.428 9.052-.458 13.424-.268 1.345-.762 4.018.777 4.858 2.447 1.334 5.974-3.111 7.605-4.469.255-.214 1.457-1.526 1.833-1.513.171.005-.465 2.074-.494 2.184-.336 1.316-.8 2.611-.975 3.959-.326 2.533-.297 4.461-.968 6.794-.175.611-.706 1.869-1.432 2.05-3.577.888-7.313.427-10.948.783-2.931.285-5.946.516-8.856.957-1.352.202-2.556.838-3.912.92-1.236.069-2.38-.818-3.645-.861-1.455-.05-3.312-.362-4.727-.059-.828.178-1.44.765-2.342.863-1.049.11-1.954-.487-2.92-.52" fill="#B6B6B6"/><path fill-rule="evenodd" clip-rule="evenodd" d="M110.727 107.14c-.948 1.681-1.895 3.319-2.557 5.147-1.408 3.866-2.825 7.741-3.963 11.703-.223.78-.399 1.922-.693 3.008-.166.603-.324 1.206-.654 1.597-.289-.061-.97-.213-1.25-.274-1.684-.349-3.733-1.069-5.27-1.936-.808-.456-2.259-1.602-2.259-1.602a1.706 1.706 0 0 0-1.68-.245c-.563.22-.966.729-1.047 1.326 0 0-.217 2.1.17 3.038.072.174.195.572.325 1.048-.68-.426-1.341-.86-2.019-1.345-1.563-1.116-3.35-2.256-5.131-2.994-.727-.299-2.161-.939-2.161-.939a1.692 1.692 0 0 0-1.933.397 1.707 1.707 0 0 0-.255 1.953s.629 1.169.908 1.77c.494 1.079.966 2.054 1.332 3.129-1.065-.422-2.127-.912-3.211-1.283-4.92-1.693-9.83-4.61-14.977-5.676-1.53-.318-3.113-.912-4.612-1.391-.194-.109-1.018-.557-1.416-.699a2.527 2.527 0 0 0-.903-.143 1.756 1.756 0 0 0-1.271.617c-.08.1-.998 1.61.383 2.557.344.234 2.14 1.298 2.309 1.389 1.555.876 3.178 1.736 4.535 2.913 4.244 3.657 8.038 6.682 11.149 11.422.513.78 1.216 1.746 1.73 2.766.352.714.67 1.445.5 2.133-.219.909.341 1.828 1.25 2.047.91.219 1.828-.34 2.047-1.249.289-1.181.084-2.447-.405-3.68-.585-1.434-1.583-2.821-2.283-3.89-2.76-4.198-6-7.152-9.62-10.274 3.552 1.321 7.01 3.161 10.49 4.359 1.558.532 3.09 1.313 4.616 1.793.058.036.672.391.984.531.455.204.898.279 1.268.248.506-.034 1.57-.331 1.592-1.727.005-.402-.502-2.364-.533-2.468a18.155 18.155 0 0 0-.814-2.495c.857.501 1.694 1.06 2.463 1.618a42.878 42.878 0 0 0 3.89 2.471c.101.055 1.417.648 1.724.71.936.177 1.45-.328 1.655-.561.267-.308.545-.906.54-1.746-.003-.677-.192-1.668-.41-2.584a23.572 23.572 0 0 0 5.663 1.992c.545.113 1.435.392 2.164.365.643-.021 1.215-.207 1.672-.568.81-.623 1.401-1.64 1.801-2.817.438-1.278.642-2.753.915-3.712 1.06-3.707 2.383-7.345 3.697-10.958-.483 4.121-.329 8.143-.572 12.255-.16 2.693-.679 6.333.191 8.976.38 1.143 1.053 1.526 1.587 1.681a2.161 2.161 0 0 0 1.564-.16c.331-.161.709-.447 1.056-.804.248-.257.481-.557.675-.722 1.296-1.078 2.857-1.864 4.276-2.801-1.033 3.408-2.261 7.273-2.007 10.613a1.699 1.699 0 0 0 1.814 1.57 1.706 1.706 0 0 0 1.57-1.814c-.229-3.1 1.068-6.696 2.005-9.817.154-.5 1.013-3.075.965-4.43-.03-.892-.385-1.521-.801-1.877-.317-.268-1.105-.775-2.112-.107-.369.245-1.767 1.825-1.891 1.949-1.641 1.631-3.984 2.519-5.806 3.965-.173-1.976.195-4.234.299-6.012.244-4.146.074-8.195.593-12.358.226-1.859.571-3.689.438-5.561-.005-.12-.113-1.717-.409-2.335-.439-.923-1.193-1.189-1.854-1.134-.318.023-.698.13-1.052.443a2.63 2.63 0 0 0-.455.55c-.173.286-.443.927-.509 1.096l-.01.043Z" fill="#000"/><path fill-rule="evenodd" clip-rule="evenodd" d="M995.945 120.7c-.486.04.064 1.602.186 2.088.461 1.829 1.618 5.47-1.271 5.948-.914.154-1.683-1.012-2.274-1.538-1.432-1.27-2.695-2.282-3.545-4.079-.534-1.133-.582-2.379-1.205-3.471-.421-.737-.931-1.595-1.473-2.275-.033-.04-.429-.574-.332-.671.202-.203 2.161.566 2.403.599 1.603.242 2.954.752 4.209 1.804.841.704 2.25 2.404 3.472 2.404" fill="#FEB611"/><path fill-rule="evenodd" clip-rule="evenodd" d="M1010.19 118.984c-.37-.13.36.097.44.145.45.292 1.08.769 1.22 1.295.26 1.036-.53 2.865-1.3 3.634-.77.777-1.96 1.068-2.94 1.562-.74.364-1.4 1.133-2.16 1.384-.55.186-.89.259-1.48.259-.11 0-.8.154-.77.17.42.421 2.32.04 2.76 0 2.15-.219 4.37-.138 6.49-.348 3.45-.348 6.72.502 10.05-.607.53-.178 1.79.056 2.16-.437 1.1-1.473 1.6-3.893 2.42-5.536.61-1.23 2.15-3.666 1.64-5.195-.2-.599-1.53.331-1.73.428-1.67.834-3.28 1.773-4.94 2.598-.28.146-1.81 1.546-1.56.518 1.25-4.969 3.42-10.205 5.71-14.802.56-1.117 1.17-2.233 1.65-3.374.07-.17.81-1.271.51-1.554-.52-.526-1.58.461-1.9.777-1.82 1.821-3.04 3.876-4.59 5.883-2.63 3.432-5.64 6.717-8.13 10.213-.86 1.206-1.12 2.566-1.55 3.893-.05.154-.5 1.141-.87.777-.98-.979-1.09-2.824-2.08-3.812-.23-.234-1.02.195-1.3-.089" fill="#B6B6B6"/><path fill-rule="evenodd" clip-rule="evenodd" d="M1011.27 117.681c-.34-.558-.79-1.295-1.06-1.716-.47-.744-1.03-1.206-1.46-1.367-.53-.203-1.05-.187-1.56.072-.48.243-.91.656-1.22 1.255-.27.502-.47 1.181-.65 1.91-.16.671-.29 1.4-.51 1.999-.04.113-.12.267-.17.364-.1-.008-.22-.073-.34-.122a4.624 4.624 0 0 1-.83-.469c-1.38-.931-2.71-2.404-3.47-3.002-.295-.235-1.266-1.303-1.622-1.514a1.729 1.729 0 0 0-.915-.267c-.388 0-.923.122-1.343.688-.098.13-.227.364-.332.656-.162.469-.324 1.303-.332 1.335-.073.332-.097 1.165-.113 2.031l-2.072-1.117c-1.959-1.052-3.925-1.78-5.989-2.606-.639-.258-1.254-.501-1.837-.857-.283-.178-.793-.624-.793-.624a1.612 1.612 0 0 0-2.193.09 1.603 1.603 0 0 0-.049 2.193s.688.76.987 1.181c.688.955 1.49 1.91 2.169 2.922.769 1.149 1.57 2.153 2.266 3.18.858 1.263 1.538 2.542 1.538 4.29 0 .882.72 1.602 1.602 1.602.883 0 1.603-.72 1.603-1.602 0-3.448-1.789-5.609-3.666-8.271.955.396 1.902.817 2.84 1.327.373.202 2.736 1.691 3.934 2.023 1.027.283 1.772-.065 2.136-.429.219-.218.502-.68.615-1.368.073-.485.081-1.23.089-1.901 1.02.922 2.547 2.452 3.997 3.213 1.14.598 2.28.768 3.25.445 1.08-.365 1.88-1.554 2.3-3.132.08-.316.16-.648.24-.98.09.146.17.284.25.413.46.745.99 1.335 1.48 1.635.72.429 1.46.485 2.21.105.5-.251 1.14-.898 1.71-1.813.84-1.351 1.69-3.407 2.17-4.062 3.06-4.184 6.23-8.263 9.88-11.954-2.29 4.557-6.15 11.096-7.14 16.073-.15.785.1 1.287.38 1.602.27.324.65.551 1.14.615.3.041.73 0 1.2-.186.65-.259 1.75-1.011 1.93-1.141.76-.461 1.5-.955 2.24-1.457-1.66 2.793-2.47 5.9-3.9 8.741-.39.793-.07 1.756.72 2.153.8.396 1.76.072 2.16-.721 1.54-3.083 2.29-6.539 4.37-9.46a73.105 73.105 0 0 0 2.37-3.488c.12-.195.77-1.271.84-1.789.12-.914-.31-1.505-.94-1.821-.34-.17-.91-.291-1.61-.024-.59.226-1.91 1.181-1.93 1.19-1.67.979-3.25 2.16-4.89 3.229 1.56-4.209 4.34-8.919 6.07-12.366.22-.429 2.23-3.99 2.72-5.714.34-1.206-.04-2.056-.38-2.404-.3-.299-.72-.469-1.14-.469h-.22c-.25 0-.49.057-.72.17-1.49.745-3.04 2.541-4.24 3.682-.38.364-.75.753-1.12 1.125-3.85 3.844-7.17 8.117-10.38 12.496-.45.599-1.21 2.306-1.98 3.698-.08.154-.19.316-.29.478v.032Z" fill="#000"/><path fill-rule="evenodd" clip-rule="evenodd" d="M1375.96 134.296c-1.59.146-2.55.87-3.75 2.067-1.17 1.171-1.21 3.954-3.49 3.575-1.85-.311-2.79-2.653-3.31-4.204-.17-.525-.85-1.335-.53-1.963.83-1.646 4.23 1.162 5.19-.267 1.33-1.999 2.31-4.367 3.4-6.529.35-.715.82-1.947 1.51-2.412.97-.637 1.53 2.98 1.53 3.402 0 2.782.75 6.081-3.04 6.081" fill="#FEB611"/><path fill-rule="evenodd" clip-rule="evenodd" d="M1367.66 139.869c-.38.129 2.67.327 3.35.327 2.53 0 5.01-.327 7.42-.672 3.53-.508 6.55-3.032 9.53-4.522.82-.413 1.67-.077 2.6-.387.9-.302 1.96-.853 2.79-1.06 1.06-.267 4-1.765 5-.766.1.103-1.76 2.36-1.92 2.601-1.7 2.558-3.27 7.166-5.87 8.467-.48.241-3.12-.534-3.66-.672-1.39-.345-2.92-.147-4.34-.388-2.56-.43-5.72-1.43-8.27-.577-1.39.465-2.75-1.033-4.23-.293" fill="#B6B6B6"/><path fill-rule="evenodd" clip-rule="evenodd" d="M1369.05 132.47c-1.39-.818-2.92-1.352-4.46-1.791-.19-.052-1.11-.388-1.59-.414-.7-.026-1.19.25-1.48.543-.31.318-.66.852-.47 1.671.06.215.22.611.5 1.051.26.43.82 1.214.87 1.283.54 1.077 1.36 2.248 2.09 3.454.57.956 1.1 1.929 1.2 2.928.08.939.92 1.628 1.86 1.533a1.703 1.703 0 0 0 1.53-1.86c-.11-1.206-.59-2.412-1.22-3.583-.43-.793-.95-1.576-1.43-2.326.33.155.65.319.96.508.1.052.79.448 1.34.681.45.189.87.276 1.11.284.63.017 1.06-.25 1.33-.525.29-.293.59-.775.82-1.378.3-.784.53-1.861.74-2.36.53-1.266 1.2-2.481 1.89-3.687-.12 1.18-.2 2.36-.2 3.532v2.282c0 .414.11 1.249.11 1.249a1.714 1.714 0 0 0 3.19.577s.72-1.335 1.2-1.921c.44-.525.91-.982 1.39-1.412-.1.491-.22 1.412-.22 1.412-.08.681.25 1.344.86 1.689.59.344 1.33.292 1.88-.13 0 0 1.02-.783 1.54-1.154.63-.448 1.31-1.033 2.04-1.499a2.68 2.68 0 0 0-.14.423c-.06.327-.24 1.033-.29 1.395-.06.387-.02.672.01.818.19.758.68 1.068 1.07 1.223.31.121 1.32.465 2.11-.723.62-.931 1.82-1.241 3.03-1.525 1.08-.25 2.2-.422 3.21-.637a33.197 33.197 0 0 0-3.92 6.115c-.2.396-.67 1.171-.95 1.809-.22.517-.32.999-.32 1.343a1.709 1.709 0 0 0 3.41.147c.07-.147.73-1.404.92-1.774a30.138 30.138 0 0 1 4.51-6.684c.81-.905 1.56-1.947 2.41-2.799.18-.173.93-.87 1.08-1.137.18-.336.22-.638.22-.879 0-.396-.17-1.593-1.59-1.705-.23-.018-1.4.129-1.47.146-1.38.31-2.51 1.266-3.81 1.757-1.4.526-3.45.681-5.26 1.18.11-.31.19-.568.2-.706.12-.836-.25-1.335-.49-1.576a1.973 1.973 0 0 0-1.33-.569c-.51-.026-1.42.25-1.71.302-.93.189-1.87.68-2.76 1.257.3-.706.76-1.791.85-2.101.4-1.344-.65-1.981-.86-2.085-.46-.232-1.23-.336-2.09.173-.86.508-2.33 2.136-2.6 2.377-.67.603-1.33 1.154-1.97 1.731.13-2.119.48-4.255.82-6.348.15-.87.33-1.723.41-2.592.06-.612.01-1.844.01-1.844a1.708 1.708 0 0 0-3.28-.568s-.47 1.137-.75 1.679c-.52 1.06-1.26 2.025-1.78 3.084-1.18 2.36-2.73 4.625-3.73 7.071-.13.302-.35.991-.55 1.602v-.017Z" fill="#000"/></g><defs><clipPath id="a"><path fill="#fff" d="M0 0h1512v164H0z"/></clipPath></defs></svg>