<svg width="1400" height="279" viewBox="0 0 1400 279" fill="none" xmlns="http://www.w3.org/2000/svg">
<g clip-path="url(#clip0_1_3)">
<path d="M380.856 99.5127V164.07C380.856 170.158 381.57 174.756 382.998 177.821C385.538 183.259 390.535 185.967 397.946 185.967C407.456 185.967 413.985 182.104 417.491 174.378C419.318 170.179 420.22 164.658 420.22 157.772V99.5127H448.605V206.604H421.396V191.467C421.144 191.803 420.472 192.769 419.444 194.407C418.394 196.044 417.155 197.493 415.728 198.731C411.361 202.657 407.12 205.345 403.047 206.793C398.974 208.242 394.188 208.956 388.687 208.956C372.878 208.956 362.234 203.245 356.755 191.866C353.69 185.568 352.157 176.31 352.157 164.049V99.4917H380.856V99.5127Z" fill="#212121"/>
<path d="M557.628 111.017C566.361 120.255 570.728 133.817 570.728 151.683C570.728 170.557 566.466 184.917 557.922 194.826C549.377 204.715 538.397 209.669 524.94 209.669C516.374 209.669 509.257 207.549 503.589 203.287C500.481 200.936 497.458 197.493 494.498 192.979V248.782H466.786V99.5126H493.616V115.321C496.639 110.661 499.873 107.008 503.295 104.32C509.551 99.5336 517.004 97.1403 525.653 97.1403C538.25 97.1403 548.894 101.759 557.649 110.996L557.628 111.017ZM536.13 131.151C532.33 124.79 526.157 121.62 517.613 121.62C507.347 121.62 500.313 126.427 496.471 136.064C494.477 141.165 493.49 147.652 493.49 155.525C493.49 167.975 496.828 176.708 503.505 181.747C507.472 184.686 512.175 186.177 517.613 186.177C525.486 186.177 531.49 183.175 535.626 177.128C539.762 171.103 541.819 163.083 541.819 153.048C541.819 144.797 539.909 137.491 536.109 131.13L536.13 131.151Z" fill="#212121"/>
<path d="M660.268 101.696C667.742 105.034 673.915 110.325 678.764 117.526C683.152 123.887 685.986 131.277 687.288 139.675C688.044 144.587 688.359 151.683 688.212 160.921H610.218C610.659 171.67 614.396 179.207 621.408 183.511C625.691 186.198 630.835 187.541 636.839 187.541C643.221 187.541 648.407 185.904 652.396 182.629C654.579 180.865 656.489 178.409 658.148 175.26H686.742C685.986 181.621 682.522 188.066 676.371 194.617C666.777 205.03 653.34 210.236 636.083 210.236C621.828 210.236 609.253 205.848 598.357 197.052C587.461 188.276 582.023 173.979 582.023 154.182C582.023 135.623 586.936 121.41 596.782 111.5C606.607 101.591 619.372 96.6575 635.075 96.6575C644.397 96.6575 652.795 98.337 660.268 101.675V101.696ZM618.385 125.881C614.417 129.954 611.94 135.476 610.932 142.446H659.177C658.673 135.014 656.175 129.366 651.724 125.525C647.252 121.683 641.731 119.751 635.117 119.751C627.937 119.751 622.353 121.788 618.406 125.86L618.385 125.881Z" fill="#212121"/>
<path d="M761.881 97.0143C762.237 97.0563 763.035 97.0983 764.295 97.1613V125.86C762.531 125.671 760.957 125.524 759.571 125.461C758.207 125.398 757.073 125.357 756.233 125.357C744.959 125.357 737.401 129.03 733.538 136.357C731.376 140.493 730.305 146.834 730.305 155.42V206.604H702.11V99.5126H728.836V118.176C733.16 111.038 736.918 106.147 740.131 103.544C745.358 99.1557 752.181 96.9513 760.558 96.9513C761.083 96.9513 761.524 96.9513 761.881 96.9933V97.0143Z" fill="#212121"/>
<path d="M770.698 120.444V100.499H785.625V70.6246H813.337V100.499H830.721V120.444H813.337V177.044C813.337 181.432 813.883 184.161 815.017 185.253C816.151 186.345 819.531 186.87 825.241 186.87C826.102 186.87 826.984 186.87 827.949 186.828C828.894 186.786 829.839 186.744 830.742 186.681V207.612L817.473 208.095C804.247 208.557 795.198 206.268 790.349 201.23C787.199 198.018 785.625 193.084 785.625 186.387V120.465H770.698V120.444Z" fill="#212121"/>
<path d="M922.318 100.121C927.693 102.41 932.123 105.916 935.566 110.64C938.505 114.649 940.289 118.764 940.94 122.984C941.591 127.204 941.927 134.111 941.927 143.684V206.625H913.333V141.417C913.333 135.644 912.367 130.983 910.415 127.456C907.874 122.48 903.067 119.982 895.992 119.982C888.917 119.982 883.059 122.459 879.259 127.414C875.459 132.369 873.549 139.423 873.549 148.618V206.646H845.543V70.7715H873.549V113.369C877.58 107.155 882.261 102.809 887.594 100.352C892.906 97.8961 898.511 96.6784 904.368 96.6784C910.961 96.6784 916.944 97.8331 922.318 100.121Z" fill="#212121"/>
<path d="M1019.88 97.0143C1020.24 97.0563 1021.03 97.0983 1022.29 97.1613V125.86C1020.53 125.671 1018.95 125.524 1017.57 125.461C1016.2 125.398 1015.07 125.357 1014.23 125.357C1002.96 125.357 995.399 129.03 991.536 136.357C989.374 140.493 988.303 146.834 988.303 155.42V206.604H960.108V99.5126H986.834V118.176C991.158 111.038 994.916 106.147 998.129 103.544C1003.36 99.1557 1010.18 96.9513 1018.56 96.9513C1019.08 96.9513 1019.52 96.9513 1019.88 96.9933V97.0143Z" fill="#212121"/>
<path d="M1108.5 101.696C1115.97 105.034 1122.14 110.325 1126.99 117.526C1131.38 123.887 1134.21 131.277 1135.51 139.675C1136.27 144.587 1136.59 151.683 1136.44 160.921H1058.44C1058.89 171.67 1062.62 179.207 1069.63 183.511C1073.92 186.198 1079.06 187.541 1085.07 187.541C1091.45 187.541 1096.63 185.904 1100.62 182.629C1102.81 180.865 1104.72 178.409 1106.37 175.26H1134.97C1134.21 181.621 1130.75 188.066 1124.6 194.617C1115 205.03 1101.57 210.236 1084.31 210.236C1070.05 210.236 1057.48 205.848 1046.58 197.052C1035.69 188.276 1030.25 173.979 1030.25 154.182C1030.25 135.623 1035.16 121.41 1045.01 111.5C1054.83 101.591 1067.6 96.6575 1083.3 96.6575C1092.62 96.6575 1101.02 98.337 1108.5 101.675V101.696ZM1066.61 125.881C1062.64 129.954 1060.17 135.476 1059.16 142.446H1107.4C1106.9 135.014 1104.4 129.366 1099.95 125.525C1095.48 121.683 1089.96 119.751 1083.34 119.751C1076.16 119.751 1070.58 121.788 1066.63 125.86L1066.61 125.881Z" fill="#212121"/>
<path d="M1193.02 141.48C1198.22 140.829 1201.96 140.011 1204.21 139.024C1208.24 137.323 1210.25 134.678 1210.25 131.067C1210.25 126.679 1208.7 123.656 1205.61 121.976C1202.53 120.297 1197.99 119.478 1192.01 119.478C1185.31 119.478 1180.55 121.116 1177.78 124.391C1175.78 126.805 1174.46 130.08 1173.79 134.216H1146.77C1147.36 124.853 1149.98 117.148 1154.66 111.122C1162.09 101.696 1174.86 96.9724 1192.95 96.9724C1204.73 96.9724 1215.19 99.3027 1224.34 103.942C1233.49 108.603 1238.05 117.379 1238.05 130.269V179.396C1238.05 182.797 1238.11 186.933 1238.24 191.782C1238.43 195.456 1239 197.934 1239.92 199.256C1240.84 200.558 1242.21 201.65 1244.03 202.489V206.604H1213.57C1212.71 204.442 1212.12 202.405 1211.81 200.516C1211.47 198.626 1211.22 196.464 1211.01 194.029C1207.13 198.228 1202.63 201.797 1197.57 204.736C1191.51 208.2 1184.66 209.942 1177.02 209.942C1167.28 209.942 1159.22 207.171 1152.86 201.65C1146.49 196.128 1143.32 188.276 1143.32 178.115C1143.32 164.952 1148.45 155.42 1158.67 149.521C1164.28 146.309 1172.53 144.02 1183.42 142.635L1193.02 141.459V141.48ZM1210.13 154.539C1208.34 155.651 1206.52 156.554 1204.71 157.247C1202.89 157.94 1200.39 158.569 1197.2 159.157L1190.81 160.333C1184.83 161.383 1180.55 162.663 1177.94 164.154C1173.54 166.715 1171.33 170.683 1171.33 176.037C1171.33 180.823 1172.67 184.266 1175.36 186.408C1178.05 188.549 1181.32 189.599 1185.19 189.599C1191.3 189.599 1196.94 187.835 1202.11 184.287C1207.27 180.739 1209.94 174.294 1210.13 164.931V154.518V154.539Z" fill="#212121"/>
<path d="M1315.08 101.234C1320.12 104.089 1324.21 108.036 1327.36 113.075V70.4776H1355.74V206.604H1328.54V191.761C1324.55 198.123 1319.99 202.741 1314.87 205.617C1309.77 208.494 1303.41 209.942 1295.81 209.942C1283.29 209.942 1272.75 204.883 1264.21 194.763C1255.66 184.644 1251.38 171.649 1251.38 155.798C1251.38 137.512 1255.6 123.152 1264 112.655C1272.42 102.179 1283.67 96.9304 1297.74 96.9304C1304.22 96.9304 1309.98 98.358 1315.04 101.213L1315.08 101.234ZM1321.96 177.527C1326.08 171.628 1328.16 164.007 1328.16 154.623C1328.16 141.522 1324.84 132.159 1318.23 126.532C1314.18 123.131 1309.45 121.431 1304.08 121.431C1295.89 121.431 1289.89 124.517 1286.04 130.71C1282.2 136.903 1280.29 144.587 1280.29 153.741C1280.29 163.629 1282.24 171.544 1286.13 177.464C1290.03 183.385 1295.93 186.345 1303.87 186.345C1311.8 186.345 1317.83 183.406 1321.94 177.506L1321.96 177.527Z" fill="#212121"/>
<path d="M291.757 118.156L291.799 118.197C296.9 118.827 300.721 120.612 303.136 123.593C304.773 125.692 305.802 128.548 306.18 132.138H334.186C332.947 119.037 328.098 109.821 319.658 104.488C311.218 99.1557 300.301 96.4895 286.928 96.4895C272.82 96.4895 261.861 100.037 254.093 107.155C253.379 107.805 252.75 108.477 252.12 109.128L291.757 118.156Z" fill="#212121"/>
<path d="M328.875 154.056C323.311 148.744 314.934 144.797 303.786 142.173L242.483 134.678C242.861 142.068 245.297 147.82 249.873 151.893C254.849 156.407 263.415 160.186 275.591 163.188C292.492 167.177 302.254 169.99 304.878 171.649C307.502 173.286 308.804 175.68 308.804 178.829C308.804 181.978 307.167 184.56 303.912 186.198C300.658 187.835 296.25 188.654 290.728 188.654C281.323 188.654 274.856 186.786 271.371 183.049C269.398 180.949 268.117 177.422 267.529 172.447H239.124C239.124 183.448 243.134 192.496 251.175 199.613C259.216 206.709 271.665 210.278 288.545 210.278C305.424 210.278 317.307 206.919 325.222 200.201C333.136 193.483 337.083 184.833 337.083 174.21C337.083 166.148 334.333 159.43 328.833 154.077L328.875 154.056Z" fill="#212121"/>
<path d="M1370.06 177.17H1400V206.709H1370.06V177.17Z" fill="#212121"/>
<path d="M205.932 107.658C205.932 107.658 205.617 73.8367 176.96 63.7385C148.303 53.6402 122.69 83.578 115.489 93.8442C115.489 93.8442 109.38 82.3393 100.688 70.8555C84.7537 50.827 54.0391 20.5533 2.5613 0C0.902752 10.2662 0 20.7843 0 31.5123C0 83.683 20.4274 131.046 53.6612 166.148L63.5495 177.506C63.5495 177.506 44.2978 204.421 44.2978 278.761C53.3673 263.981 65.9429 251.616 80.8488 242.735C84.9007 240.321 89.1415 238.179 93.5083 236.29C128.464 216.702 155.105 185.127 167.891 146.708C167.996 146.351 168.143 146.015 168.248 145.658C181.978 144.104 193.714 136.064 200.369 124.664L200.747 123.74L295.473 129.45L205.911 107.616L205.932 107.658Z" fill="#212121"/>
</g>
<defs>
<clipPath id="clip0_1_3">
<rect width="1400" height="278.782" fill="white"/>
</clipPath>
</defs>
</svg>
