<svg width="1512" height="318" fill="none" xmlns="http://www.w3.org/2000/svg"><g clip-path="url(#a)"><path d="M1506.56 165.716 1.363 212.294" stroke="#FA0" stroke-width="2.726" stroke-linecap="round" stroke-linejoin="round"/><path d="M1510.64 174.944 2.613 195.457" stroke="#101828" stroke-width="2.726" stroke-linecap="round" stroke-linejoin="round"/><path fill-rule="evenodd" clip-rule="evenodd" d="M545.895 181.167c-2.224 1.017-6.48.514-9.028.916-10.245 1.609-20.892 2.302-30.936 5.039-5.497 1.497-19.846 1.007-25.432 1.878-14.457 2.268-25.49 2.168-39.5 6-15.421 0-19.501-.774-31.5 2.5-8.111 2.212-15.777.215-24 1.5-3.173.503-8.983-.927-12 0-2.346.715-4.098-3.598-6.5-4-2.201-.369-1.494-4.902-2.5-6.5-4.022-6.413 1.497-5.752-2-12.5-3.955-7.642 1.307-6.188 0-14.5-.235-1.475.423-5.637-.001-7-.939-3.072-2.282-3.827-.997-7 .335-.816-.616-2.441-.002-3 .927-.849-.995-2.136-.001-2.974 2.771-2.313-3.451-1.429.002-2.49 2.234-.681-.521 1.587 1.39 0 .581-.48.67-2.011.983-2.67 2.101-4.559 1.073-11.24 5.251-14.725 4.782-3.989 12.86-2.302 18.625-3.207 7.977-1.251 15.876-2.089 23.931-2.726 4.614-.369 9.262-1.743 13.898-1.81 4.302-.056 8.905-.369 13.184-1.039 10.256-1.609 20.568-2.48 30.713-4.078 6.033-.95 12.1-2.357 18.077-3.776 4.111-.972 8.603-.894 12.792-1.173 11.542-.749 23.049-2.95 34.702-2.458 7.318.301 15.116-1.877 22.3-.045 2.369.603 6.246.38 7.888 2.681 1.251 1.755 1.486 4.436 2.223 6.458.525 1.43 1.375 3.162 1.397 4.726.033 2.514-1.106 5.408-.726 7.854.245 1.598.737 4.045.447 5.81-.224 1.341-.85 3.486-.637 4.86.447 2.849.726 5.217.246 8.078-.246 1.497.558 4.145.804 5.753.536 3.43-1.017 7.173-.503 10.436.548 3.463.324 8.033-1.016 11.362-3.185 7.865-10.301 10.67-18.379 11.932-2.223.346-4.916 1.676-7.128 1.587-2.324-.101-4.469.324-6.927.435-2.525.112-5.117-.502-6.804 1.81" fill="#fff"/><path fill-rule="evenodd" clip-rule="evenodd" d="M390.187 168.129c.257-.067-.603-.078-.961.134-.558.324-1.083.76-1.541 1.218-1.62 1.62-3.241 3.899-3.71 6.189-.681 3.419-.167 6.86.559 10.167.134.637.95 3.073-.559 2.536-1.34-.469-2.502-1.754-3.608-2.58-1.129-.849-2.447-1.553-3.051-2.905-1.039-2.346-.379-5.262.19-7.642.213-.905.526-2.168 1.028-2.95 1.419-2.223 4.123-4.256 6.793-4.592 1.05-.134 2.101-.346 3.14-.145.379.078 1.027.793.614 1.218M574.042 237.152c-.525.034-.905-.335-1.497-.134-1.375.458-2.112 2.257-2.559 3.464-.815 2.19-1.62 4.301-1.385 6.714.156 1.598.681 2.939 1.24 4.425.056.156.57 1.162.413 1.318-.167.156-1.005-.101-1.106-.134-1.821-.603-2.938-2.235-3.944-3.743-.514-.771-1.396-1.463-1.731-2.357-.749-1.989-.492-5.452.558-7.341 1.129-2.033 2.559-3.374 4.704-4.077.614-.202 1.419-.637 2.078-.414.871.291 2.313 1.341 2.972 2.011M1012.46 92.648c-1.32.28-1.98.961-2.55 2.369-.98 2.447-1.56 4.424-.72 6.971.38 1.14 1.51 2.235 2.09 3.386.14.268.56.905.4 1.24-.19.391-1.96.123-2.28.067-1.97-.324-5.15-1.598-6-3.586-.32-.727-.26-1.509-.33-2.28-.25-3.06.11-5.329 2.09-7.686.83-.995 2.24-2.112 3.65-1.766 1.02.257 2.18.704 3.07 1.375M1123.21 202.417c-1.02-.357-1.96.637-2.45 1.453-.96 1.642-1.88 3.508-2.07 5.441-.15 1.396.31 3.184 1.57 4.022.39.268.93.424 1.26.759.36.347 1.75 1.453 1.43 2.09-.31.614-1.96.458-2.49.458-.66 0-1.3 0-1.93-.201-.82-.269-2-.447-2.69-.972-1.35-1.017-2.57-3.162-3.15-4.726-.25-.637-.62-1.33-.52-2.034.14-.938.72-1.631 1.22-2.391 1.13-1.687 2.4-3.888 4.48-4.58 1.19-.403 3.27-.626 4.43-.056.3.156.67 1.017.96 1.017M1055.87 245.096c-.33-.324-.9.056-1.31.212-1.11.403-2.24.794-3.37 1.118-1.68.502-3.87.692-5.29 1.832-1.3 1.039-.92 2.86-1.12 4.279-.1.67-.26 1.318-.26 1.989 0 1.262.31 2.569.31 3.776 0 .212.2 1.072.05 1.229-.12.123-1.12-.034-1.22-.056-1.01-.123-3.53-.391-4.23-1.274-.31-.391-.11-1.139-.16-1.575-.1-1.285-.1-2.581-.1-3.877 0-1.039.21-2.067.26-3.106.09-2.178-.33-5.664 2.19-6.67 2.55-1.016 5.21-.458 7.84-.257 1.01.079 1.99-.223 3.01-.1 1.28.156 3.1.045 3.1 1.676" fill="#FA0"/><path fill-rule="evenodd" clip-rule="evenodd" d="M1040.49 314.577c-.68-.301-1.22-.145-1.81-.905-1.36-1.698-1.53-5.005-2-7.105-1.6-7.218-2.16-14.893-2.16-22.334 0-5.553.71-11.105.41-16.669-.18-3.196-.88-6.547-.56-9.731.86-8.559 1.29-17.172 1.83-25.775.35-5.553-.24-11.128.16-16.681.38-5.307-.35-11.295 3.02-15.798 1.46-1.944 3.61-3.497 5.67-4.781.66-.414 1.31-.995 2.08-1.274.12-.045 1.23-.447 1.11-.559-.29-.29-1.21-.067-1.59-.156-1.59-.402-3.17-.413-4.8-.559-1.89-.167-3.73.872-5.26 1.833-7.61 4.759-6.2 13.507-5.43 21.305.19 1.933.02 3.888.16 5.821.61 8.614.01 17.463-.56 26.088-.41 6.245.56 12.502.08 18.747-.44 5.676-.81 11.374-.41 17.072.5 6.826-.59 13.641.16 20.423.31 2.827.63 6.29 2.72 8.379.95.95 1.83 2.123 3.1 2.637 1.1.436 2.36.168 3.43.883M1058.12 196.641c-.14-.067-.5-.111-.39-.201.23-.201 1.71.045 2 .045 1.56 0 3.2-.246 4.78-.335 5.06-.268 10.14-.224 15.19-.38 9.01-.279 18-.324 27-.223 7.39.089 14.8-.302 22.17.055 2.82.134 5.68.023 8.48.09 1.08.022 2.43.547 3.46.223.92-.301 2.99-.38 2.82-1.877-.06-.637-.84-.771-1.34-.916-1.27-.38-2.5-.737-3.84-.782-2.76-.101-5.57-.659-8.34-.693-2.71-.033-5.45.079-8.17-.011-4.03-.145-8-.201-12.03-.223-3.87-.023-7.87.949-11.74.603-2.68-.235-5.43-.29-8.14-.369-4.32-.134-8.63-.648-12.96-.178-4.45.48-9.18.648-13.67.648-.69 0-1.42-.358-2.11-.28-.58.067-1.22.313-1.81.369-.46.056-.95-.346-1.35-.257-.37.089-.39.838-.46 1.117-.2.849-.41 3.989 1.12 3.385M1153.31 195.703c-.15-.067 1.45.29 1.86.324l2.74.246c.68.033 3.77.704 3.87-.458.11-1.274-1.33-2.213-2.35-2.604-1.5-.581-3.75-.949-5.37-.569-1.96.469-2.29 1.944-1.02 3.463M995.946 154.599c-.894.458-2.301-1.195-2.893-1.854a33.46 33.46 0 0 1-5.207-7.832c-3.072-6.469-5.463-13.184-8.301-19.742-1.609-3.709-3.296-7.307-4.737-11.117-.961-2.525-2.011-5.05-2.525-7.697-.19-.995-.581-2.257.19-3.129 1.073-1.229 2.693-1.72 4.056-2.513 2.167-1.274 4.346-2.593 6.48-3.844 2.58-1.508 4.971-3.296 7.519-4.837a156.585 156.585 0 0 1 12.282-6.693c3.44-1.687 6.92-3.184 10.32-4.994 1.12-.592 2.35-.96 3.44-1.575.26-.145 1.58-.693 1.49-.749-1.04-.704-2.66.067-3.74.336-3.51.893-6.7 2.703-9.93 4.368-2.8 1.441-6.209 1.307-9.014 2.804-2.424 1.285-4.692 2.85-7.128 4.145-1.787.95-3.787 1.497-5.586 2.425-2.111 1.083-3.988 2.39-6.033 3.564-3.206 1.843-8.513 3.44-10.01 7.217-.816 2.067 1.128 4.804 1.754 6.692 1.061 3.263 2.257 6.413 4.111 9.34 1.944 3.084 4.033 6.078 5.609 9.385a56.235 56.235 0 0 1 2.446 5.966c.179.525.537 1.71 1.14 1.922.302.101.559-.168.793-.346.861-.659.604-1.922.257-2.782M560.87 268.893c-.235.704-1.989-1.296-2.235-1.597-1.687-2.112-2.514-3.944-3.039-6.581-.871-4.335-.536-8.547-.905-12.915-.178-2.201-.391-4.603-.167-6.827.48-4.748.826-9.731.826-14.479 0-3.855-.379-7.843.168-11.687.693-4.848.078-9.418 2.715-13.82 1.665-2.771 5.843-3.899 8.971-4.525 1.743-.346 3.319-.972 5.106-1.15 1.43-.146 2.894-.738 4.279-.738.514 0 1.017-.167 1.486-.167.279 0 .827-.079.827-.079s-.548.034-.827 0c-.67-.078-1.307-.324-1.977-.413-1.821-.223-3.587-.659-5.43-.659-5.776 0-14.089.257-17.273 5.843-1.899 3.329-1.463 7.709-2.055 11.429-1.263 7.989-1.788 16.402-1.319 24.513.09 1.519.648 2.994.738 4.525.257 4.413.245 8.993.245 13.407 0 6.223.537 13.395 6.994 15.552.816.268 1.408.905 2.38.905M588.317 196.485c-.357-.123.603-.101.726-.089.615.067 1.307.078 1.933.055 2.123-.055 4.123.235 6.19.447 2.603.257 4.759-.056 7.53-.212 3.307-.19 6.614.112 9.932.034 4.1-.101 8.346.223 12.435.458 1.922.111 3.91.525 5.81.324 2.715-.302 5.698.659 8.357.312 8.167-1.072 16.993-2.122 25.294-1.597 7.195.458 14.77 1.05 21.954.581 1.698-.112 3.497.033 5.15-.101.135 0 1.542-.38 1.509-.547-.034-.157-1.408-.157-1.52-.157-1.575.034-3.173-.402-4.737-.558-6.547-.66-13.373-1.307-19.931-1.028-9.24.391-18.413-.391-27.596-.436-4.972-.022-9.855.693-14.815.927-6.994.336-14.033 0-20.948-.167-3.598-.078-7.33-.514-10.894-.872-1.452-.145-3.195-1.072-4.569-.458-1.43.637-3.475.615-4.067 2.402-1.028 3.117 3.654 1.229 5.095.905M375.528 198.842c-.882-.391-1.977-.514-2.67-1.296-.816-.916-.804-2.323-1.486-3.284-2.637-3.732-3.575-10.067-3.921-14.58-.246-3.24-.067-6.581-.458-9.799-.358-2.904-1.218-5.776-1.364-8.703-.268-5.53 1.609-11.038 1.855-16.535.179-4.033-.022-8.033 1.263-11.999.357-1.095.312-2.38 1.094-3.296 1.632-1.888 3.564-3.441 5.721-4.726 4.636-2.771 9.865-3.732 15.083-4.726 8.636-1.654 17.295-3.329 25.975-4.815 4.425-.76 8.86-1.207 13.318-1.721 1.464-.168 2.938-.302 4.424-.313.514 0 1.006-.112 1.531-.089.235 0 .938.067.704.033-1.855-.324-3.989.257-5.866.425-4.469.391-8.926 1.374-13.384 1.62-4.447.257-8.916.424-13.374 1.005-3.396.436-6.837 1.375-10.256 1.542-4.033.201-7.955.324-11.988.704-6.044.581-13.429.648-16.669 6.681-2.536 4.737-2.704 10.011-3.587 15.172-.38 2.19.347 4.19.336 6.391-.012 3.341-.079 6.625.167 9.932.168 2.179-.156 4.458-.167 6.659-.012 3.173.525 6.435.759 9.586.369 4.927.503 9.53 1.922 14.245.815 2.692.693 4.96 2.324 7.262.469.659.503 1.832 1.206 2.346 1.62 1.196 4.436 1.475 6.38 1.81" fill="#FA0"/><path fill-rule="evenodd" clip-rule="evenodd" d="M579.327 182.944c-.681.357-.313 1.653-.301 2.29.044 2.235-.324 4.424-.324 6.648 0 5.541-.034 11.217-.246 16.647-.056 1.407-.257 2.905 0 4.279.078.391-.078 1.162.29 1.452.559.458 3.832.134 4.626-.056.346-.078 1.407-.178 1.642-.469.302-.38.324-1.408.447-1.877.458-1.81.816-3.754.894-5.608.301-7.933 1.452-16.078.022-23.887-.424-2.335-5.173-1.296-6.391-.168-.648.604-1.005 1.643-1.307 2.447M730.719 182.564c-.827.179-.782 1.173-.86 1.877-.257 2.19-.079 4.458-.391 6.648-.503 3.564-1.017 7.172-.637 10.747.223 2.134-.324 4.101.246 6.235.29 1.095 0 2.994.715 3.91 1.184 1.486 4.882 1.765 6.603 1.586 1.765-.189 1.139-2.368 1.228-3.497.101-1.273.57-2.603.481-3.865-.413-6.089.424-12.279.302-18.245-.045-2.044.245-5.407-1.129-7.128-1.72-2.156-7.675.324-7.765 2.827" fill="#667085"/><path fill-rule="evenodd" clip-rule="evenodd" d="M981.823 137.104c-.425.122 1.653-2.012 1.832-2.235 1.117-1.385 2.078-2.961 3.028-4.458 1.731-2.726 3.441-5.463 4.882-8.301.715-1.419 1.207-4.212 2.927-4.491 3.631-.581 9.718 1.407 13.038 3.24 2.59 1.419 5.87 3.296 8.93 3.24 1.64-.023 1.86-2.838 2.28-4.145.82-2.626 2.7-6.514 4.62-8.502 1.38-1.419 4.27.301 6.01.48 2.18.235 3.8.246 6.01.48.54.056 1.9.101 2.33.514.86.838.86 2.682 1.75 3.687 2.11 2.38 5.07 6.748 5.84 9.955 1.35 5.575-6.01 8.033-9.61 10.279-4.21 2.614-8.35 4.759-12.71 7.038-1.92.995-4.04 2.458-6.08 3.173-2.87 1.006-5.69 2.737-8.59 3.575-1.03.302-2.3.66-3.2 1.263-1.6 1.072-3.48 1.553-5.255 2.245-2.29.894-3.765 2.458-6.379 1.017-1.229-.67-1.911-2.145-2.794-3.15-2.647-2.995-5.619-5.095-7.005-9.017-.614-1.743-.949-3.709-1.72-5.195-.19-.368.469-1.151.86-1.028M1032.16 250.414c-1.12.213-.4-7.083-.39-9.016.05-5.251-.68-10.614-.21-15.731.37-4.011 5.48-3.039 7.88-4.748 2.78-1.977 5.86-2.447 8.91-3.631 5.6-2.19 11.13-4.491 16.71-6.67 2.48-.972 4.73-2.212 6.95-3.62.22-.145 1.94-1.553 2.34-1.374 2.46 1.073 6.05 5.475 8.73 7.541 6.21 4.805 14.49 6.615 20.52 12.056 2.27 2.044 4.99 3.664 7.24 5.686 1.53 1.397 3.22 2.972 4.86 3.117 5.15.47 9.83-6.591 13.58-9.25 1.38-.984 3.44-1.051 4.82-2.034.73-.514 4.15-3.541 5-3.173 6.08 2.67 11.09 6.793 16.42 10.916 1.72 1.329 8.05 6.089 8.3 8.01.46 3.598.29 10.324-.95 13.139-.45 1.039-4.9.492-5.84.615-2.99.38-5.83 1.374-8.84.715-2.42-.537-5.71-1.643-8.22-1.196-10.16 1.799-19.71-.435-29.78.067-9.46.481-18.11.302-27.44.224-5.13-.045-10.12 1.832-15.16 1.664-2.61-.089-5.51-1.273-7.87-1.486-.66-.055-1.88.704-2.41.481-.53-.235-.35-1.743-.38-2.134-.05-1.017 1.14-6.067-.89-6.949-.8-.347-2.55.313-3.66.368-3.18.157-5.78.738-8.63.481-1.22-.112-2.85-.581-3.61.503-1.41 2.011.98 6.189-.88 8.256-.53.581-1.79.089-2.34-.156-1.77-.782-2.95-1.419-4.88-1.587-.31-.033-.46-.704-.36-.927" fill="#D0D5DD"/><path fill-rule="evenodd" clip-rule="evenodd" d="M1050.65 180.776c-.92.157-.67 1.408-.66 2.101.02 1.575-.48 3.698-.87 5.229-.47 1.854-.53 3.608-.57 5.485-.09 4.1-.61 8.134-.32 12.111.04.536-.04 3.966.7 4.145.59.157 1.76.335 2.58.38.69.033 4.55-.469 4.78-1.363.3-1.184-.43-2.67-.29-3.955.58-5.341.27-10.636.54-15.932.16-2.961 1.08-5.776.45-8.659-.49-2.268-6.38.09-7.17 1.319M1144.15 175.459c-.14-.861-.16 2.402-.21 3.005-.16 2.246-.06 4.514-.41 6.726-.58 3.586-.37 6.871-.27 10.468.05 1.542-.28 3.252.17 4.76.2.659-.25 3.877.31 4.234 1.27.805 4.06 1.129 5.75 1.006 4.05-.291 2.74-5.162 2.67-7.91-.22-7.218-.28-14.759-.78-21.63-.05-.726-.78-1.039-1.22-1.33-2-1.285-5.91-1.463-6.75 1.788" fill="#667085"/><path opacity=".2" fill-rule="evenodd" clip-rule="evenodd" d="M1226.96 12.237c.01-1.452 5.36-1.229 6.39-1.229 5.74 0 11.75 2.86 14.41 8.156 4 8.01 4.05 16.747 5.3 25.562.35 2.514-.14 5.263-.14 7.754 0 .324-.24 2.201 0 2.447.48.48 3.94-.134 4.49-.134 2.65 0 5.5.86 7.61 2.447 4.17 3.128 7.76 6.904 10.47 11.418 1.09 1.81 1.31 5.787 2.58 7.072 0 0 4.24-.994 4.63-1.084 3.62-.905 9.64-1.776 12.91.268 4.66 2.916 9 7.52 11.69 12.234.6 1.062 2.57 4.145 1.5 5.575-6.01 8.011-18.19 7.341-27.73 8.29-23.95 2.391-47.92.503-71.92 1.765-8.61.459-17.18 1.397-25.56 2.447-1.84.224-4.13-.246-5.71.548-.08.044-1.22.134-1.22.268 0 .301 2.46.1 2.72.134 2.78.346 5.45.547 8.29.547 6.55 0 13.33 1.631 19.85.816 4.42-.559 10.76-1.408 15.09-.548 5.52 1.107 12.09 2.615 17.81 2.045 4.29-.425 8.86-1.843 13.32-.95 2.86.57 5.93.123 8.84.548 3 .436 6.41.86 9.52.547 5.74-.57 12.79-.949 18.49 0 5.37.894 12.07.592 17.39 0 3.03-.335 6.59.715 9.39-.681 2.13-1.073 1.63-5.654 1.63-7.609 0-6.547 1.62-13.328-3.68-18.624-4.39-4.402-11.24-8.715-17.67-9.52-2.8-.345-5.63-.535-8.43-.133-.92.134-2.59.905-3.54.268-2.24-1.497-1.61-4.871-2.71-7.072-1.36-2.704-5.51-6.301-8.16-7.888-3.56-2.134-7.23-2.547-11.02-3.81-1.4-.469-5.21.079-6.24-.95-1.49-1.485 1.75-4.468 2.58-6.11 1.22-2.436.33-6.1.68-8.838.24-1.877.63-3.62 1.08-5.441 1.27-5.05-3.27-10.167-5.84-13.597-3.86-5.15-8.77-8.145-14.96-9.385-1.41-.28-4.59-.625-5.84 0-2.3 1.151-5.67.112-8.16 1.363M201.202 2.96c-.135-1.105 2.066-.435 2.726-.435 2.849 0 5.642.894 8.2 1.989 8.156 3.497 11.899 10.748 18.893 15.418 1.542 1.028 4.189 1.195 5.966 1.497 1.81.302 2.927-.458 4.603-.871 3.329-.827 6.715-.336 9.82.994 4.011 1.72 7.039 4.424 9.944 7.329 1.855 1.855 3.341 4.212 5.218 6.089.48.48.58 1.408.994 1.62 2.357 1.173 6.904-2.737 9.072-3.609 3.206-1.285 8.882-.603 12.178 0 8.357 1.52 16.446 8.983 21.127 15.541 1.173 1.654 2.067 3.609 2.86 5.475.369.86-.022 2.346.626 2.983 1.363 1.363 3.787 1.676 5.843 2.357 1.452.48 2.737 1.922 3.854 2.86 3.185 2.648 4.034 4.626 3.106 8.324-.659 2.647-4.971 1.743-6.837 1.743-6.76 0-13.474.748-20.267.748-9.698 0-19.317 2.134-28.959 2.737-19.261 1.207-38.5 2.246-57.806 3.855-11.016.916-22.166 2.782-33.071 4.603-3.541.592-7.139 1.173-10.692 1.62-1.284.156-2.603.168-3.854.369-.436.078-.793.033-1.24.123-.168.033-.659 0-.503 0 5.865 0 11.575-.302 17.407-.75 6.994-.535 14.043-.122 21.004-.993 6.256-.782 13.708-1.643 20.01-.749 8.502 1.218 17.384.045 25.976.626 5.072.335 10.558.614 15.54 1.62 1.9.38 4.123-.559 5.967-.872 1.832-.301 3.854.067 5.72-.123 8.044-.804 16.166-.022 24.11-1.62 2.246-.447 5.028 0 7.34 0 4.313 0 8.648-.357 12.927.246 2.547.369 5.284-.424 7.832 0 2.234.369 8.558 1.207 9.943-.871.548-.816.134-2.749.369-3.732 1.475-5.899-.782-13.697-5.72-17.652-1.107-.883-2.034-2-3.475-2.358-2.279-.57-5.341-1.497-7.709-1.497-.726 0-3.441.413-3.977-.123-.492-.491.122-1.854.122-2.491 0-1.967 0-4.09-.871-5.843-1.676-3.341-4.759-5.788-7.083-8.704-3.497-4.368-7.732-8.066-13.05-10.066-5.385-2.022-9.954-1.117-15.161.626-1.016.335-2.357.301-3.229.748-1.53.76-3.385 1.386-4.848 2.358-.202.134-1.833 1.642-1.989 1.485-.927-.927-.291-4.737-.749-6.089-1.083-3.24-7.05-6.413-9.82-8.077-2.257-1.352-4.972-1.866-7.452-2.492-.492-.123-1.754-.368-2.235-.123-2.011 1.006-4.178.581-6.335 1.118-1.418.357-3.552.96-4.971.245-.414-.212.223-1.217.123-1.62-.28-1.106-1.106-2.524-1.743-3.485-5.508-8.257-15.731-13.798-25.73-13.798-2.369 0-5.319.156-7.464.871-.793.268-1.999.145-2.357.872" fill="#D0D5DD"/><path fill-rule="evenodd" clip-rule="evenodd" d="M1134.2 268.938c-.02-.223-1.66.023-1.92.045-2.12.134-4.29.145-6.42 0-9.21-.682-18.54.704-27.78.022-13.69-1.016-27.83-1.139-41.52-.927-4.21.067-8.14-.436-12.32-.078-.34.033-3.35-.268-3.48.022-.77 1.676-1.19 5.575-.97 7.62.5 4.67 3.77 2.96 7.41 2.715 4.52-.302 9.03-.235 13.55-.369 18.6-.57 37.2.045 55.79-.134 4.26-.045 8.26.346 12.45.033 1.17-.089 3.83.391 4.74-.357.78-.615.56-2.313.66-3.173.27-2.413.09-3.162-.74-5.452M1109.43 286.792c.43-.805-1.58-.134-2.18-.09-2.17.157-4.44.224-6.62.202-5.26-.056-10.54-.369-15.81-.47-3.66-.067-7.28-.212-10.95-.156-8.45.112-16.9-1.095-25.3-.469-1.68.123-3.83.692-5.26.536-.17-.022-1.53.212-1.64.469-.7 1.531-.43 5.017-.17 6.759.8 5.073 2.86 3.576 7.07 3.263 2.51-.19 5.02.045 7.54.022 13.24-.123 26.91-.056 40.08-1.475 3.58-.379 7.19-.111 10.77-.324.92-.055 3.39 0 4.17-.826.47-.503-.01-2.034-.12-2.604-.28-1.452-.5-6.658-3.58-5.53" fill="#667085"/><path fill-rule="evenodd" clip-rule="evenodd" d="M588.43 201.11c-.179-.178 3.475-.212 3.81-.156 2.715.458 5.865.447 8.603.436 8.345-.023 16.781-.414 25.182-.447 10.547-.034 20.993-.391 31.54-.257 4.659.056 9.296.838 13.91 1.184 6.301.469 12.647-.089 19.004-.145 5.117-.045 10.301.268 15.061.402.737.022 3.888-.168 3.765.95-.101.916-.693 1.832-.983 2.703-2.749 8.223-5.955 6.391-13.977 5.497-5.81-.648-11.698-.279-17.53-.748-7.686-.615-16.01-.995-23.652-.302-7.362.682-14.792-.95-22.121-.503-10.625.648-25.239 2.034-35.629.872-5.162-.581-10.938-1.106-15.988-.961-3.765.112-7.742-1.229-11.452-.827-.949.101-2.882.324-3.687-.257-2.033-1.486-2.938-6.189-.614-8.044 1.832-1.464 4.301-.67 6.379-.726 5.676-.168 11.173 1.642 16.737 1.039M683.631 222.461c-1.274-1.665-3.72-.648-5.732-.615-5.496.09-11.049-.514-16.546-.648-7.497-.19-15.139.246-22.624.369-15.552.257-31.149-1.318-46.734-1.419-6.503-.045-12.949.112-19.34.212-2.76.045-6.245-.67-6.189 3.006.122 7.575 4.133 5.072 11.217 5.809 4.513.47 9.44 1.229 13.988.939 16.367-1.039 33.238.726 49.717.838 7.117.044 14.256 1.072 21.373.279 1.575-.179 3.139-.369 4.726-.514 4.971-.458 18.836 2.425 16.233-6.547-.324-1.117-1.597-2.011-2.122-2.771M516.299 115.551c.056-.078.86-.58.558-.636-3.608-.66-12.904.458-16.501.972-10.636 1.508-21.395.514-31.931 2.011-24.423 3.452-49.271 2.536-73.571 7.441-5.184 1.05-10.725 2.279-15.909 3.005-3.084.436-5.676 1.374-5.62 4.29.011.95.369 2.112.659 3.028.291.882.671 4.067 1.475 4.502.659.358 2.022-.424 2.648-.603 2.357-.681 5.452-.581 7.877-.737 6.278-.403 12.624-.771 18.825-1.754 8.793-1.386 17.764-1.766 26.602-2.626 11.842-1.151 23.752-2.838 35.696-3.374 7.865-.358 16.803-.112 24.367-2.313 6.86-1.988 14.278-1.419 21.227-3.005.816-.19 5.732-1.553 5.844-2.19.391-2.123-1.386-5.854-2.883-8.022M483.513 140.712c.357-.603-1.419 0-2.123.123-.983.179-1.989.302-2.983.425-2.76.335-5.575.424-8.346.648-8.067.659-16.2.96-24.289 1.228-18.546.637-36.925 1.419-55.281 4.023-3.263.458-16.021-.459-15.765 3.519.928 14.591 18.301 7.999 28.591 7.653 18.144-.592 36.657-2.447 54.611-4.994 6.725-.95 13.585-2.089 20.345-2.804 2.402-.257 5.362.123 7.496-.682 4.134-1.553-.48-10.491-4.591-9.91" fill="#D0D5DD"/><path fill-rule="evenodd" clip-rule="evenodd" d="M967.906 104.569c.19.257.469.626.559.816.681 1.352 1.53 2.67 2.178 4.033 1.933 4.134 3.62 8.458 5.687 12.524 1.05 2.067 2.246 4.246 2.916 6.492 1.072 3.642 3.028 7.161 4.771 10.513 2.446 4.703 4.558 11.005 8.502 14.647.547.503 1.363.57 2.223.547 1.754-.055 3.676-.715 4.838-1.262 2.87-1.341 5.93-2.123 8.75-3.553 4.67-2.368 9.37-4.759 14.05-7.128 5.19-2.625 10.45-4.782 15.34-7.988 1.91-1.252 4.28-2.514 5.1-4.771.68-1.877-.1-4.514-.84-6.245-2.05-4.827-4.99-9.206-7.12-14.033-2.06-4.692-4.03-9.374-6.09-14.044-1.52-3.463-3.65-6.714-5.05-10.189-.6-1.497-1.56-3.396-2.87-4.793-.71-.77-1.54-1.408-2.49-1.598-1.93-.402-3.85.336-5.72 1.252-2.26 1.117-4.44 2.547-6.44 3.352-6.296 2.536-12.061 5.843-18.195 8.714-4.268 2-8.513 3.642-12.502 6.257-1.329.871-3.329 1.709-5.083 2.759-1.263.749-2.458 1.542-2.771 2.737.201.291.29.637.279.984l-.022-.023Zm-3.452.391c.011.134.044.28.089.425 0 .056.022.112.022.167.067.548.391 1.006.838 1.263l.09.112c.67 1.318 1.486 2.58 2.111 3.91 1.944 4.167 3.654 8.525 5.732 12.625.961 1.888 2.078 3.877 2.692 5.921 1.14 3.844 3.173 7.575 5.017 11.106 2.614 5.016 4.994 11.675 9.206 15.563 1.151 1.061 2.804 1.497 4.603 1.43 2.223-.078 4.67-.883 6.146-1.575 2.89-1.352 5.99-2.157 8.85-3.598 4.67-2.368 9.37-4.759 14.05-7.128 5.3-2.681 10.66-4.905 15.67-8.167 2.49-1.631 5.34-3.497 6.41-6.435.95-2.603.11-6.29-.91-8.692-2.04-4.849-5.01-9.24-7.14-14.078-2.06-4.692-4.03-9.373-6.08-14.043-1.51-3.43-3.64-6.648-5.02-10.1-.74-1.833-1.93-4.123-3.53-5.832-1.21-1.296-2.65-2.268-4.26-2.604-2.15-.447-4.33 0-6.44.872-2.7 1.117-5.29 2.95-7.65 3.9-6.353 2.558-12.185 5.887-18.364 8.78-4.413 2.068-8.793 3.788-12.926 6.48-1.587 1.04-4.134 2.034-6.078 3.397-1.665 1.162-2.894 2.592-3.262 4.335-.09.402-.079.883.011 1.385.033.179.078.369.123.548v.033ZM1155.41 194.328a1.68 1.68 0 0 0 2.29.19 1.67 1.67 0 0 0 .27-2.357c-.53-.659-1.44-1.128-2.64-1.296-1.63-.223-3.93.112-5.06.022-6.7-.502-13.29-.178-19.94-.681-9.97-.738-20.27-.302-30.29.033-6.93.235-13.83-1.128-20.8-.838-4.46.19-8.91.782-13.38.76-6.63-.033-13.03.235-19.53.626-1.43.089-3.14-.101-4.7.033-1.34.112-2.59.447-3.61 1.151a1.666 1.666 0 0 0-.43 2.324c.52.76 1.56.961 2.33.436.74-.503 1.71-.581 2.69-.615 1.34-.033 2.74.078 3.94 0 6.41-.391 12.74-.648 19.31-.614 4.53.022 9.02-.57 13.53-.76 6.96-.29 13.86 1.073 20.77.838 9.9-.335 20.09-.771 29.93-.045 6.65.492 13.24.179 19.95.682.95.067 2.77-.168 4.28-.101.41.023.99.157 1.1.19l-.01.022ZM1154.98 317.013c.06.067.11.134.17.201.63.682 1.69.738 2.37.112.86-.782.91-1.519.85-1.955-.08-.592-.39-1.14-1.07-1.486-.33-.157-.85-.291-1.47-.302-.77-.022-1.79.112-2.15.134-3.11.19-6.33.045-9.38.47-3.65.502-7.65-.257-11.35-.336-4.67-.089-9.43.905-14.11.403-9.75-1.062-19.55-.023-29.25-.447-16.22-.704-32.74-.224-48.62-.034a1.67 1.67 0 0 0-1.65 1.698 1.67 1.67 0 0 0 1.69 1.654c15.82-.201 32.29-.67 48.45.022 9.63.414 19.36-.625 29.04.425 4.77.514 9.63-.469 14.4-.38 3.86.078 8.05.827 11.87.302 2.96-.414 6.09-.257 9.12-.436l1.11-.056-.02.011ZM1032 203.401h-.06.06Zm1.13-.358c.34-.268.58-.681.62-1.162a1.667 1.667 0 0 0-1.51-1.821c-1.02-.089-1.69.358-2.12 1.151-.33.637-.36 1.832-.36 2.402-.02 2.234-.22 4.469-.35 6.692-.61 9.586-.09 19.183-.17 28.792-.06 6.904.5 13.831.21 20.736-.39 9.239-.57 18.39-.16 27.596.22 4.659.31 9.351.26 13.976-.02 2.425-.5 4.715.28 7.128a1.669 1.669 0 0 0 2.11 1.073 1.668 1.668 0 0 0 1.08-2.112c-.68-2.055-.14-3.999-.12-6.066.04-4.682-.05-9.441-.26-14.156-.42-9.105-.24-18.155.15-27.305.29-6.938-.27-13.91-.21-20.848.08-9.541-.45-19.071.16-28.601.14-2.291.34-4.581.36-6.872v-.603h.03ZM1168.02 202.026s.08-.067.11-.111c.64-.671.62-1.732-.05-2.369-.5-.48-.98-.592-1.34-.614-.5-.023-.95.134-1.33.48-.27.235-.56.67-.68 1.285-.16.771-.04 2.268-.04 2.681-.02 2.883.19 5.732.07 8.636-.37 8.045-1.57 16.178-1.37 24.211.21 8.893-.45 17.999-.87 26.881-.4 8.29-.16 16.703.13 24.97.24 6.682-.5 13.508-.55 20.211-.01.928.74 1.687 1.66 1.687.92 0 1.68-.737 1.69-1.664.05-6.76.8-13.631.55-20.356-.29-8.19-.52-16.491-.13-24.692.42-8.971 1.08-18.155.87-27.126-.2-7.966 1-16.01 1.36-23.987.14-2.939-.08-5.832-.05-8.76 0-.178-.02-.86-.03-1.374v.011Z" fill="#101828"/><path fill-rule="evenodd" clip-rule="evenodd" d="M1155.75 193.535c.62.213 2.65.928 2.97 1.04 2.18.748 4.6 2.659 5.65 4.804.2.413.23.972.27 1.53.04.838.04 1.699.13 2.38.12.916.97 1.564 1.89 1.441a1.69 1.69 0 0 0 1.44-1.888c-.11-.748-.08-1.732-.16-2.648-.08-.849-.24-1.642-.56-2.279-1.42-2.882-4.63-5.497-7.57-6.502-.48-.168-2.92-1.207-4.02-1.274-1.19-.078-1.85.536-2.12 1.14-.37.849 0 1.832.84 2.212.42.179.85.19 1.24.056v-.012ZM1155.86 315.907a1.6 1.6 0 0 1-.42.849c.3-.313.39-.625.42-.849Zm-2.04-1.91c-.29.067-.57.212-.79.435-.49.481-.5.95-.51 1.173 0 .38.11.704.3.984.2.301.63.793 1.52.726.09 0 .24-.023.45-.101.18-.056.85-.368 1.07-.458.86-.212 1.9-.748 2.68-1.173 1.33-.726 3.35-2.056 4.76-3.631 1.15-1.285 1.87-2.737 1.89-4.167a1.675 1.675 0 0 0-1.66-1.687c-.93 0-1.69.737-1.7 1.664 0 .693-.48 1.341-1.02 1.956-1.16 1.273-2.8 2.335-3.88 2.927-.56.301-1.3.748-1.89.86-.08.011-.89.357-1.22.492ZM1032.63 204.685c-.03-.055.03-.122.04-.201.02-.134.05-.268.1-.402.12-.424.3-.882.46-1.363.52-1.531 1.42-4.156 2.87-5.865.67-.794 1.45-1.408 2.47-1.263.91.134 1.76-.492 1.91-1.408a1.686 1.686 0 0 0-1.41-1.91c-2.21-.335-4.07.693-5.52 2.402-1.73 2.045-2.87 5.128-3.49 6.949-.29.86-.6 1.676-.7 2.391-.11.782-.03 1.497.28 2.134.4.827 1.41 1.173 2.25.771a1.693 1.693 0 0 0 .77-2.246l-.03.011ZM1040.33 313.907c-.18-.033-.69-.123-.99-.223-.75-.235-1.48-.458-2.01-.492a6.306 6.306 0 0 1-.59-.413c-.43-.335-.85-.659-1.27-.872-.23-.122-.34-.335-.47-.536-.2-.335-.38-.681-.59-1.005-.58-.883-1.25-1.888-1.6-2.916-.22-.637-.34-1.274.05-1.833.52-.759.35-1.81-.41-2.335a1.698 1.698 0 0 0-2.34.414c-.85 1.218-1 2.569-.71 3.944.33 1.575 1.33 3.206 2.21 4.558.66 1.005 1.14 2.089 2.33 2.693.43.223.85.659 1.29.96.62.436 1.29.693 1.95.693.18 0 .41.101.66.19.52.168 1.06.346 1.6.447 1.21.223 2.29.022 3.08-.76.66-.648.67-1.709.03-2.368a1.685 1.685 0 0 0-2.23-.146h.01ZM1054.25 243.253l.03-.078s-.03.056-.03.078Zm-.01.045v.022l.01-.067v.045h-.01Zm-.04.122v.056-.067.011Zm-.02.112v.023-.045.022Zm.76 1.643-.15.022c-1.37.123-2.86-.19-4.24-.291-2.33-.167-4.79.414-7.01.246-.58-.044-1.23-.156-1.79.056-.04.279-.15.939-.22 1.24-.54 2.447-.1 4.726-.28 7.139-.07.85.08 2.481.4 3.274.1.235.16.503.18.804v.19c.4.067.84.09 1.3.078 1.36-.011 2.81-.245 3.92-.346 1.4-.123 3 .022 4.57.056 1.16.022 2.3 0 3.25-.413.03-.123.09-.403.11-.581.06-.827-.02-1.71.02-2.28.14-1.765.46-3.519.55-5.217.08-1.363 0-2.693-.59-3.966l-.02-.011Zm-16.46 12.792c0 .223.03 1.006.17 1.385.21.626.6 1.129 1.32 1.419 1.96.816 5.25.335 7.37.146 1.57-.146 3.42.111 5.16.078 1.44-.034 2.83-.246 4-.838.77-.391 1.3-1.073 1.58-1.967.33-1.106.17-2.692.24-3.575.14-1.787.46-3.553.56-5.284.11-2.011-.09-3.967-1.03-5.843a1.754 1.754 0 0 0-.42-.537c0-.022-.02-.056-.04-.078a1.78 1.78 0 0 0-1.11-1.028c-.47-.156-1.86.023-1.86.023h.08c-1.19.111-2.49-.213-3.7-.302-2.32-.168-4.78.413-7.01.246-1.29-.09-2.74-.09-3.91.581-.64.357-1.08.949-1.31 1.698-.17.525-.21 1.173-.31 1.631-.57 2.603-.16 5.039-.35 7.62-.09 1.195.14 3.43.58 4.636l-.01-.011ZM1123.11 203.367h-.25c-.3 0-.59.045-.82.056-2.15.145-4.58.872-5.88 2.704-1.65 2.346-.54 5.284 1.51 7.072.74.637 1.51 1.341 2.45 1.653 1.76.581 3.63.056 5.1-1.016 1.5-1.095 2.6-2.749 2.74-4.536.11-1.386-.77-2.246-1.68-3.061-.73-.671-1.52-1.308-2.2-1.989a1.498 1.498 0 0 1-.52-.279c-.15-.112-.32-.369-.45-.615v.011Zm2.56-2.178c-.17-.269-.4-.548-.67-.715-.85-.503-2.27-.459-3.2-.403-3.09.213-6.51 1.475-8.38 4.112-2.68 3.798-1.27 8.636 2.05 11.53 1.06.927 2.23 1.866 3.6 2.312 2.8.928 5.79.213 8.12-1.485 2.29-1.665 3.91-4.268 4.11-6.994.17-2.19-.75-3.766-2.07-5.117-.96-.995-2.18-1.833-3.06-2.849a1.46 1.46 0 0 0-.5-.391ZM1162.18 237.588c.06.559.39 1.073.93 1.33a1.68 1.68 0 0 0 1.64-.09c.26-.111.6-.279.69-.368.19-.179.31-.38.39-.57.15-.346.18-.704.09-1.084-.13-.514-.6-1.195-1.44-1.743-.9-.614-2.38-1.217-2.89-1.564-3.35-2.257-6.26-5.083-9.62-7.351-2.88-1.944-5.54-4.313-8.34-6.391-.64-.48-1.48-1.229-2.34-1.776-.81-.503-1.63-.849-2.42-.905-1.65-.123-2.71.67-4.12 1.43-1.75.938-3.53 1.821-5.15 2.972-4.54 3.24-9.42 6.211-14.07 9.183-1.16.738-2.53 1.285-3.57 2.179-.7.603-.78 1.665-.18 2.369.6.703 1.67.782 2.37.178.92-.793 2.17-1.24 3.18-1.899 4.71-3.005 9.65-6.011 14.23-9.284 1.49-1.073 3.15-1.877 4.78-2.749.46-.246.85-.502 1.25-.726.31-.179.62-.335 1.04-.302.4.034.8.336 1.2.615.67.469 1.3 1.017 1.8 1.396 2.83 2.112 5.53 4.514 8.46 6.492 3.36 2.268 6.27 5.094 9.62 7.351.36.246 1.16.615 1.96 1.028.15.078.33.19.51.29v-.011Z" fill="#101828"/><path fill-rule="evenodd" clip-rule="evenodd" d="M1111.08 234.963a1.68 1.68 0 0 0 1.54 1.519c.21.045.81.145 1.05.112.55-.078 1-.347 1.33-.86.21-.358.55-1.14-.14-2.023-.37-.458-2.62-2.044-2.79-2.167-2.61-2.022-5.19-4.212-7.72-6.346-4.23-3.575-8.88-6.759-13.43-9.944-2.99-2.1-6.02-4.502-9.27-6.2-1.4-.738-2.99-2.056-4.57-3.05-1.32-.827-2.65-1.43-3.86-1.542-.98-.09-1.96.201-2.9.715s-1.82 1.285-2.59 1.709c-1.81.995-3.89 1.888-5.8 2.67-7.63 3.151-15.43 6.056-23.21 8.782-1.49.525-2.93 1.475-4.34 2.402-1.12.726-2.19 1.452-3.3 1.709a1.69 1.69 0 0 0-1.26 2.012 1.67 1.67 0 0 0 2.01 1.251c1.46-.335 2.92-1.207 4.38-2.179 1.18-.771 2.37-1.597 3.61-2.044 7.86-2.749 15.71-5.676 23.39-8.849 2.02-.838 4.22-1.776 6.14-2.838.66-.368 1.42-.983 2.21-1.486.44-.279.87-.581 1.33-.536 1.01.101 2.07.804 3.16 1.542 1.4.95 2.8 2.033 4.04 2.681 3.11 1.631 6.02 3.955 8.9 5.977 4.46 3.129 9.03 6.246 13.18 9.754 2.57 2.167 5.19 4.38 7.84 6.435.06.045.56.403 1.06.782l.01.012ZM1031.33 250.973c-.8.681-1.39 1.676.04 2.346l.06.022s.09.045.14.056c.28.112.76.313.89.347.61.156 1.25.268 1.85.368 1.63.28 3.59.313 5.2.19a1.69 1.69 0 0 0 1.54-1.799 1.688 1.688 0 0 0-1.8-1.541c-1.35.111-3 .078-4.37-.157-.5-.089-1.03-.179-1.54-.301l-.66-.269h-.02c-.81-.29-1.18.123-1.31.749l-.02-.011ZM1163.31 251.23c-.08.123-.13.257-.17.391.04-.134.1-.268.17-.391Zm-103.98.324Zm103.79.916c.04.268.18.558.47.838-.25-.235-.4-.525-.47-.838Zm-103.25.301c0 .324-.08.648-.27.939.21-.291.29-.615.27-.939Zm104.47-2.301c-.16 0-.42 0-.54.022-.71.056-1.43.112-2.13.246-2.04.391-4.11.313-6.19.48-6.23.492-12.55.403-18.83.336-18.44-.224-36.86-.101-55.27-.492-5.23-.112-10.43 0-15.65.067-1.63.022-3.27.078-4.92.112-.54.011-2.43-.157-2.73-.134-.96.089-1.3.737-1.4.938-.19.38-.22.771-.11 1.196.06.245.2.558.55.849.36.301.82.424 1.27.369.36.022 2.05.145 2.48.134 1.63-.034 3.25-.09 4.88-.112 5.19-.056 10.36-.179 15.54-.067 18.44.391 36.85.268 55.31.491 6.38.079 12.81.157 19.13-.346 2.21-.168 4.41-.112 6.55-.525.58-.112 1.17-.145 1.78-.201.32-.022.91-.045 1.08-.078.44-.112.69-.347.84-.503.33-.369.46-.771.44-1.196-.02-.346-.11-.815-.6-1.229-.42-.368-.98-.48-1.49-.346l.01-.011ZM741.561 193.915v-.078.078Zm0 .056v.022-.055.044-.011Zm.011.067v.022-.055.033Zm.738 1.173a1.674 1.674 0 0 0 2.603-1.407c0-.66-.425-1.654-1.843-1.9-1.241-.212-4.402.145-4.995.201-5.172.537-10.613.749-15.82.738-14.256-.034-28.836.715-43.159.056-23.797-1.095-47.829.983-71.693-.403-15.15-.871-33.294-2.1-48.087-.022a1.676 1.676 0 0 0 .458 3.318c14.592-2.044 32.49-.815 47.427.045 23.887 1.385 47.93-.693 71.739.402 14.367.659 29.003-.089 43.304-.056 5.329.011 10.882-.212 16.178-.748.413-.045 3.162-.19 3.899-.224h-.011ZM741.1 268.815c-14.39.916-29.842-1.396-44.556-1.43-31.16-.067-62.342-.223-93.491-.29-13.932-.034-28.981-.905-42.612 1.005a1.682 1.682 0 0 0-1.43 1.888 1.676 1.676 0 0 0 1.888 1.43c13.486-1.899 28.367-1.005 42.143-.983 31.149.067 62.331.224 93.491.291 14.792.033 30.322 2.335 44.779 1.418a1.674 1.674 0 0 0 1.564-1.776 1.682 1.682 0 0 0-1.776-1.564v.011Z" fill="#101828"/><path fill-rule="evenodd" clip-rule="evenodd" d="M559.406 192.765c-4.536.268-7.049 3.161-8.424 6.938-1.195 3.284-1.486 7.273-1.709 10.312-1.073 14.881.056 29.998.123 44.712.011 3.352 1.542 9.038 4.279 12.658 2.111 2.805 4.927 4.391 8.189 3.564a1.676 1.676 0 0 0 1.207-2.044 1.666 1.666 0 0 0-2.033-1.207c-1.911.492-3.442-.693-4.682-2.335-2.301-3.05-3.586-7.843-3.597-10.658-.067-14.625-1.196-29.652-.134-44.456.201-2.77.424-6.413 1.508-9.407.916-2.502 2.469-4.558 5.474-4.737a1.676 1.676 0 0 0 1.576-1.776 1.677 1.677 0 0 0-1.777-1.576v.012ZM742.701 193.848c-.056-.29-.234-.871-1.05-1.173.536.201.916.648 1.05 1.173Zm.045.492c0 .268-.078.514-.224.749a1.83 1.83 0 0 0 .224-.749Zm-.738 1.296a2.227 2.227 0 0 1-.29.156c.112-.044.212-.1.29-.156Zm-1.083.279.223.056c.302.157.659.268 1.05.346.269.056.57.068.805.146 1.43.502 2.357 1.843 3.542 2.793 3.027 2.435 3.776 7.43 3.966 11.094.435 8.312-.291 16.882-.525 25.172-.257 9.217 1.53 18.658-.425 27.629-.067.313-.357.581-.614.86-.481.525-1.017.995-1.363 1.386-1.755 1.944-3.754 2.592-6.514 3.296a1.679 1.679 0 1 0 .838 3.251c3.486-.894 5.955-1.844 8.167-4.302.425-.469 1.117-1.083 1.665-1.743.536-.648.938-1.351 1.083-2.033 1.989-9.173.224-18.826.492-28.244.235-8.379.972-17.038.525-25.44-.235-4.524-1.486-10.535-5.217-13.529-1.475-1.185-2.738-2.715-4.525-3.341-.425-.145-1.363-.302-1.442-.313-.469-.234-1.508-.424-1.62-.424-1.485.011-1.653 1.318-1.664 1.62 0 .212-.067 1.206 1.095 1.631.145.056.29.089.435.1l.023-.011Z" fill="#101828"/><path fill-rule="evenodd" clip-rule="evenodd" d="M577.494 240.191c-2.134-1.318-3.162-2.424-5.787-2.067a1.73 1.73 0 0 1-.526.358 1.679 1.679 0 0 1-1.53-.112 1.73 1.73 0 0 1-.559-.268 4.717 4.717 0 0 0-.469.257c-.905.603-1.788 1.475-2 1.832-2.961 4.983-.469 11.296 5.184 11.709 2.022.145 3.33-1.117 4.212-2.704 1.073-1.933 1.553-4.346 1.687-6.133.023-.369.034-1.967-.212-2.872Zm-6.692-5.318c-.615-.324-1.352-.402-2.168-.19-1.877.492-4.413 2.995-4.893 3.799-4.279 7.206-.336 16.178 7.82 16.759 2.827.201 4.927-1.051 6.436-2.983 1.966-2.514 2.849-6.302 3.039-8.961.033-.469.022-2.424-.257-3.72-.235-1.073-.782-1.788-1.252-2.067-3.307-1.955-4.659-3.408-8.737-2.648l.012.011ZM552.052 101.329a1.668 1.668 0 0 1-2.123.045c-.123 0-.816-.022-1.24.045-1.039.167-2.123.469-2.805.547-4.547.514-9.396.827-13.965.927-13.82.302-28.266 1.732-41.841 4.436-4.893.972-10.424 2.212-15.418 2.324-9.083.201-18.189 3.083-27.35 3.285-6.201.134-12.2 1.05-18.289 1.731-12.078 1.363-24.468 1.687-36.512 3.955-6.86 1.296-14.882.983-21.093 3.207-.861.313-1.967.67-2.972 1.229-.771.424-1.509.938-1.877 1.709-5.352 11.318-2.682 26.401-2.413 38.713.167 7.977-.19 22.143 3.519 29.16 2.301 4.357 6.782 4.893 11.251 5.195 9.127.626 18.3-1.095 27.372-1.821 18.066-1.453 36.154-3.911 54.097-6.547 9.217-1.352 18.703-1.933 27.976-2.581 11.72-.816 23.417-3.251 35.059-4.67 9.407-1.151 25.004-1.665 33.417-5.497 1.34-.603 3.262-1.184 5.027-1.978 1.374-.614 2.682-1.296 3.218-2.435 2.983-6.313 3.575-21.172 2.067-27.976-.358-1.631-.324-3.352-.257-5.083.056-1.475.156-2.972-.09-4.425-.346-2.122-.167-4.279 0-6.446.146-1.866.291-3.732-.122-5.575-.727-3.263-.414-6.625-.403-9.899 0-2.815-.201-5.553-1.944-8.044-1.463-2.089-3.91-2.871-6.491-3.24-1.933-.268-3.944-.302-5.81-.302l.012.011Zm-3.441-3.273c-1.14.156-2.358.491-3.106.58-4.447.504-9.195.805-13.664.906-14.011.301-28.658 1.754-42.422 4.491-4.704.939-10.033 2.145-14.837 2.257-9.083.201-18.189 3.084-27.35 3.285-6.301.134-12.402 1.061-18.591 1.754-12.156 1.374-24.635 1.698-36.757 3.999-7.028 1.33-15.229 1.073-21.597 3.341-1.229.436-2.849 1.005-4.201 1.888-1.083.715-1.999 1.62-2.547 2.771-5.564 11.764-3.005 27.428-2.726 40.221.179 8.39 0 23.272 3.899 30.646 2.905 5.497 8.346 6.591 13.988 6.982 9.296.637 18.625-1.083 27.875-1.821 18.144-1.463 36.3-3.921 54.31-6.569 9.127-1.341 18.535-1.911 27.718-2.547 11.776-.816 23.53-3.263 35.238-4.693 9.687-1.184 25.73-1.832 34.4-5.765 1.631-.737 4.112-1.441 6.145-2.514 1.676-.882 3.05-2.044 3.743-3.508 3.217-6.804 3.932-22.814 2.301-30.132-.301-1.352-.245-2.782-.178-4.223.067-1.709.145-3.43-.123-5.106-.302-1.866-.112-3.743.033-5.642.168-2.19.291-4.391-.19-6.569-.67-3.017-.335-6.134-.324-9.162.011-3.497-.38-6.882-2.547-9.977-1.62-2.324-4.056-3.608-6.815-4.267-3.631-.872-7.832-.626-10.994-.738-.235 0-.469.034-.681.123v-.011Z" fill="#101828"/><path fill-rule="evenodd" clip-rule="evenodd" d="M386.722 169.705a1.663 1.663 0 0 1-.928.48c-2.681.436-4.625 2.402-5.664 4.815-1.084 2.525-1.196 5.553-.056 8.078.436.961 1.363 1.62 2.413 2.145 1.9.927 4.246 1.318 5.877 1.352.469 0 .86-.246 1.251-.469.503-.28.995-.559 1.508-.771 3.944-1.564 4.916-6.145 4.224-9.944-.123-.67-.224-1.441-.447-2.167-.145-.492-.324-.972-.682-1.296-.961-.894-1.944-1.765-3.005-2.503-.447-.313-1.196-.223-1.989-.145-.827.078-1.687.246-2.502.425Zm-4.235-1.944c-2.458 1.195-4.324 3.351-5.43 5.921-1.441 3.363-1.553 7.418-.033 10.781.737 1.632 2.201 2.894 3.988 3.765 2.358 1.162 5.274 1.654 7.296 1.699.782.011 1.486-.179 2.156-.492.648-.29 1.24-.726 1.9-.983 5.485-2.179 7.251-8.368 6.279-13.664-.324-1.765-.738-4.022-2.146-5.329-1.072-.995-2.178-1.978-3.374-2.805-.771-.536-1.888-.793-3.161-.782-2.157.023-4.894.816-6.335 1.073a1.668 1.668 0 0 0-1.14.793v.023ZM1035.54 112.312v.033-.056.023Zm0 .067v.078l-.01.067c0-.056 0-.101.01-.157v.012Zm-19.4 9.049c-.32.056-.73-.022-1.16-.123-.9-.212-1.85-.614-2.45-.983-.51-.324-1.18-.536-1.88-.681-.67-.134-1.4-.201-1.93-.414-3.01-1.184-5.97-2.167-9.168-2.927-.604-.145-3.229-1.139-4.637-1.318-.838-.101-1.475.078-1.821.29-.983.604-1.732 1.955-2.324 2.916a213.204 213.204 0 0 0-5.988 10.234c-.838 1.542-1.71 3.207-2.738 4.626-.301.413-.804.96-1.184 1.553-.402.625-.67 1.296-.715 1.921a1.676 1.676 0 0 0 3.341.235c.011-.19.19-.358.324-.548.335-.458.715-.882.949-1.206 1.106-1.531 2.056-3.318 2.961-4.983a203.937 203.937 0 0 1 5.899-10.078c.235-.368.469-.826.749-1.251.078-.123.156-.257.245-.358.302.056.816.157 1.207.28 1.24.357 2.547.849 2.95.938 3.04.715 5.85 1.654 8.71 2.782.6.235 1.37.369 2.12.503.42.078.86.134 1.16.324 1.47.916 4.49 1.899 6.19 1.497.78-.179 1.47-.681 2.04-1.441.79-1.062 1.31-2.771 1.73-3.832.99-2.492 2.8-5.24 4.28-7.575l.87.279c.48.157.89.212 1.1.212 1.4-.022 3.09.57 4.7.916 1.32.28 2.61.403 3.7.202l.51.178c.23.291.55.514.94.604.91.212 1.8-.347 2.03-1.24.12-.526.05-1.263-.68-1.889-.35-.312-1.11-.681-1.79-.871-.63-.168-1.21-.168-1.55-.101-.95.224-2.11-.078-3.29-.357-1.54-.369-3.1-.782-4.44-.793-.28-.101-1.81-.615-2.37-.693-1.08-.145-1.71.413-1.96.827-1.64 2.659-3.96 6.044-5.14 9.061-.26.648-.54 1.597-.93 2.413-.11.234-.23.458-.38.648-.04.067-.13.145-.17.19l-.01.033ZM1012.11 93.43c-.48.548-1.27.749-1.97.425-1.04-.48-1.84-.022-2.46.67-1 1.095-1.69 2.67-2.2 3.788-.19.402-.42.871-.56 1.352-.08.268-.16.536-.1.793.33 1.419 1.22 2.29 2.25 2.961 1.36.882 2.96 1.474 4.41 2.223.26.145.57.033.86-.067.57-.201 1.1-.559 1.52-.872 1.05-.782 2.16-1.687 2.97-2.781.65-.883 1.08-1.9.94-3.106-.31-2.414-1.79-3.743-3.63-4.603-.65-.302-1.33-.56-2.04-.782h.01Zm-3.84-3.083c-1.17.246-2.19.96-3.06 1.922-1.23 1.351-2.14 3.273-2.76 4.647-.57 1.23-1.21 2.894-.87 4.313.56 2.368 1.95 3.877 3.7 5.005 1.44.939 3.15 1.587 4.68 2.38.91.469 1.92.536 2.9.301 1.12-.257 2.22-.927 3.03-1.53 2.79-2.089 5.72-5.017 5.23-8.994-.75-5.921-5.95-7.765-10.94-8.95a1.703 1.703 0 0 0-1.9.895l-.01.01Z" fill="#101828"/><path opacity=".2" fill-rule="evenodd" clip-rule="evenodd" d="m1164.7 106.086.05.055-.03-.044-.02-.023v.012Zm.05.055c.1.134.18.28.24.425a1.63 1.63 0 0 0-.24-.425Zm93.51-59.616c1.4-3.63 1.72-8.323 1.47-12.178-.13-1.955.25-4.19-.27-6.122-2.59-9.653-10.58-14.357-19.73-16.401-12.47-2.793-24.02 7.217-27.02 18.714-.82 3.094-.27 6-.06 9.116-.01-.011-.01-.056-.01-.056s.71 2.794.72 3.777c.03 1.229-.68 1.843-1.17 2.044-.38.157-.86.224-1.4.179-.45-.045-1-.246-1.36-.224-2.62.168-5.71.827-8.15 1.833-2.27.927-4.47 1.653-6.58 2.882-2.88 1.676-4.83 3.575-6.05 5.765-1.83 3.33-1.93 7.296-1.09 11.988.16.961.59 2.212.82 3.386.2 1.06.25 2.078.04 2.893-.14.514-.53 1.084-1.29 1.475-1 .514-3.28.76-3.95.938-3.33.894-6.66 2.09-9.46 4.112-5.36 3.854-11.15 8.19-12.04 14.96-.08.503-.21 1.206-.29 1.888-.04.402-.11.804 0 1.084.73 1.765 1.82 4.48 2.3 6.692h.08c1.05-.089 3.32.089 4 .123 3.38.201 6.71-.514 10.08-.458 9.82.179 19.6-.123 29.4.625 27.65 2.123 55.52.302 83.19.794 6.63.123 13.25.849 19.88.927 1.08.011 2.49.179 3.85.19 1.01 0 1.99-.022 2.66-.492.29-.201.27-.547.32-.86.08-.57.14-1.151.27-1.665.69-2.592 1.23-5.854 1.04-8.658-.71-10.972-10.11-19.597-20.55-21.295-2.23-.358-4.85-.536-7.09-.134-1.52.268-3.63.871-5.13.47-.45-.124-1.11-.548-1.62-1.442-.81-1.43-1.72-4.77-2.22-5.553-2.36-3.653-5.98-7.038-9.46-9.62-1.62-1.195-3.39-1.73-5.2-2.077-2.06-.391-4.2-.548-6.33-.961-.72-.145-1.7-.09-2.59-.156-.89-.067-1.71-.235-2.35-.56-.73-.368-1.37-1.284-.86-2.748.29-.804 1.08-2.078 1.87-3.228.55-.805 1.27-1.889 1.33-1.99v.023Zm-48.54-4.48c-.2-.022-.39-.033-.51-.022-2.95.19-6.44.938-9.2 2.067-2.41.983-4.76 1.776-7.01 3.094-3.48 2.034-5.81 4.38-7.28 7.04-2.17 3.954-2.45 8.635-1.47 14.2.14.826.48 1.876.73 2.904.11.47.22.927.24 1.34-.78.157-2.48.503-2.92.615-3.7.995-7.41 2.38-10.54 4.626-6.09 4.38-12.38 9.54-13.41 17.239-.09.648-.28 1.597-.33 2.469-.06.838.03 1.62.26 2.212.79 1.922 2.17 5.106 2.31 7.162.05.927.84 1.62 1.77 1.564.05 0 .09 0 .13-.012.52.347 1.19.369 1.73.068.78.022 2.83.089 3.35.122 3.43.202 6.8-.514 10.22-.446 9.75.167 19.47-.123 29.21.614 27.7 2.123 55.63.313 83.39.793 6.63.112 13.26.849 19.9.928 1.32.011 3.13.257 4.78.167 1.4-.078 2.71-.391 3.67-1.061.81-.559 1.25-1.296 1.51-2.123.22-.737.22-1.586.41-2.302.76-2.916 1.36-6.58 1.16-9.72-.83-12.513-11.46-22.445-23.38-24.389-2.57-.425-5.62-.592-8.2-.134-.66.112-1.44.324-2.22.47-.36.066-.72.122-1.05.122-.21-.47-.68-1.508-.96-2.29-.52-1.43-1.02-2.838-1.34-3.33-2.56-3.977-6.48-7.686-10.29-10.502-3.88-2.86-8.38-2.76-12.88-3.63-.72-.135-1.65-.146-2.55-.18h-.06c.39-.636.86-1.396 1.21-1.91.64-.916 1.14-1.71 1.27-2.033 1.58-4.067 1.98-9.33 1.7-13.653-.14-2.156.2-4.637-.37-6.77-2.95-10.95-11.85-16.469-22.23-18.804-14.23-3.195-27.57 8.01-31 21.138-.92 3.464-.4 6.704-.17 10.19.01.19.23 1.251.42 2.167ZM268.675 34.758c-.167-1.307-.357-2.604-1.05-3.832-1.732-3.117-4.547-5.587-7.474-7.486-3.173-2.056-8.648-3.385-12.447-2.905-1.173.145-3.429 1.04-5.239 1.23-1.173.122-2.213-.023-2.972-.448-.827-.469-1.486-1.318-1.978-2.346-.48-1.017-.793-2.234-1.229-3.017-.916-1.664-2.592-3.083-3.932-4.413-7.006-6.96-16.636-8.848-26.099-8.055-4.425.369-8.838 2.816-12.167 6.245-3.307 3.408-5.553 7.799-5.542 12.223 0 3.486.358 6.793.794 10.178.111.302.692 1.933.748 2.592.101 1.017-.391 1.62-.804 1.9-.034.022-1.006.703-2.011-.101l-.559-.447c-.491-.201-.983-.369-1.542-.257-2.078.447-5.72 2.28-7.195 3.9-2.212 2.446-4.502 5.295-6.145 8.189-.357.625-.77 2.279-1.296 3.419-.391.849-.893 1.474-1.351 1.787a1.606 1.606 0 0 1-1.531.179 1.692 1.692 0 0 1-.849-.704c-.112-.179-.481-1.274-.57-1.52-.257-.547-.771-1.351-1.229-1.675-8.212-5.877-20.647-3.218-26.412 5.217-.815 1.184-1.284 2.804-1.631 4.503-.592 2.905-.793 6.055-1.229 8.211 0 .045-.156.916-1.218 1.308-.938.357-5.664 1.988-6.256 2.245-.916.38-1.844 1.24-2.737 2.324-1.509 1.832-2.827 4.335-3.564 6.815-.671 2.212-.95 4.402-.235 5.933a7.719 7.719 0 0 1 1.117-.313c3.039-.592 7.899.022 9.396.011 11.843-.033 23.932.302 35.73-.737 35.673-3.14 71.693-1.486 107.456-2.883 8.022-.313 16.156.347 24.166-.156 9.34-.581 18.993-.402 28.322-.224.961.023 3.62.414 5.81.347.67-.023 1.575-.224 1.81-.28 1.162-2.245 1.14-6.68 1.017-9.261-.358-7.084-7.363-11.586-13.497-12.793-1.027-.201-2.592.056-3.955.1-1.363.045-2.58-.111-3.351-.547a1.724 1.724 0 0 1-.872-1.374c-.056-.503.246-2.715.246-3.039 0-1.71-.782-3.631-1.385-5.24-1.944-5.106-6.357-11.15-11.15-13.876-6.637-3.776-12.793-4.983-20.122-3.419-2.614.559-5.285 1.61-7.676 2.648-1.05.458-2.022.983-2.971 1.62-.235.157-.693.47-.693.47a1.677 1.677 0 0 1-2.514-1.956l.078-.29h-.011Zm-82.676-2.302a5.134 5.134 0 0 0-1.531.09c-2.603.558-7.139 2.893-8.982 4.938-2.369 2.625-4.816 5.675-6.581 8.781-.201.358-.424 1.006-.681 1.72-.414-.535-.872-1.027-1.274-1.318-9.664-6.926-24.345-3.876-31.138 6.045-1.039 1.508-1.698 3.553-2.145 5.731-.514 2.525-.737 5.24-1.072 7.318-1.665.604-5.117 1.81-5.631 2.023-3.151 1.307-6.726 6.29-8.223 11.261-1.061 3.508-1.039 6.972.436 9.173a.766.766 0 0 0-.045.156 1.67 1.67 0 0 0 1.173 2.056 1.687 1.687 0 0 0 2.034-1.095c.078-.045.379-.212.603-.28.491-.144 1.084-.234 1.709-.29 2.816-.223 6.368.235 7.586.224 11.944-.034 24.122.301 36.009-.749 35.629-3.14 71.582-1.486 107.289-2.871 8.055-.313 16.211.346 24.244-.156 9.251-.581 18.815-.403 28.054-.213 1.173.022 4.782.548 7.184.268 1.654-.2 2.849-.882 3.329-1.731 1.498-2.626 1.688-8.078 1.531-11.24-.436-8.647-8.714-14.435-16.2-15.91-1.061-.212-2.57-.089-4.011 0-.48.034-.961.056-1.385.045.078-.704.167-1.452.167-1.63 0-2.09-.86-4.459-1.608-6.425-2.19-5.754-7.218-12.524-12.625-15.597-7.419-4.212-14.301-5.53-22.479-3.776-2.827.603-5.721 1.72-8.324 2.86a21.77 21.77 0 0 0-1.698.827c-.223-1.15-.57-2.28-1.173-3.374-2-3.598-5.206-6.48-8.58-8.67-3.754-2.436-10.212-3.989-14.692-3.408-1.017.134-2.849.805-4.514 1.129a6.746 6.746 0 0 1-1.195.134c-.157 0-.313 0-.425-.056-.413-.235-.581-.793-.804-1.33-.403-.972-.715-2.01-1.118-2.737-1.061-1.944-2.949-3.63-4.513-5.184C226.98 1.51 216.388-.692 205.953.18c-5.184.436-10.39 3.229-14.289 7.25-3.922 4.045-6.503 9.319-6.492 14.559 0 3.597.358 7.005.805 10.49l.022-.022Z" fill="#101828"/><path fill-rule="evenodd" clip-rule="evenodd" d="M1051.17 180.441c-.21-.067-.49-.312-.69-.301-.15 0-.17 1.542-.18 1.642-.25 1.776-.45 3.542-.71 5.318-.17 1.285-.73 2.525-.83 3.81-.2 2.369-.32 4.648-.72 7.005-.48 2.816.2 5.821.06 8.648-.13 2.29 1.87 2.938 3.47 3.608.42.179 1.23.537 1.71.347 2.14-.85 3.19-3.486 3.26-5.587.18-4.402-.5-8.982.12-13.373.43-3.117 1.76-8.044.08-10.96-1.37-2.391-5.62-.715-7.02.86M1144.7 174.777s-.17-.592-.27-.548c-.6.235-.18 1.285-.18 1.933 0 2.804-.18 5.564-.38 8.357a76.354 76.354 0 0 0 .38 15.418c.18 1.43-.74 3.687.17 4.882 1.06 1.408 4.1 2.09 5.71 2 .6-.033 1.24-.949 1.48-1.43.94-1.787 1.05-3.608 1.08-5.653.04-5.352-1.08-10.848-.72-16.155.12-1.855-.21-3.62-.21-5.464 0-1.284.43-2.58-.05-3.787-.52-1.318-1.58-1.263-2.79-.95-1.81.469-5.03.738-4.86 3.609M730.776 182.117c-.95.972-.57 2.737-.603 4.357-.056 3.095-.76 6.246-.928 9.374a72.294 72.294 0 0 0 0 7.776c.157 2.682-.111 5.944.805 8.245.257.66 1.441.984 1.933 1.241 1.575.826 4.279 2.122 5.463-.123 1.14-2.168.536-6.056.536-8.391 0-4.379.313-8.77.391-13.139.045-2.692.179-5.362-.279-8.021-.168-.972.056-1.911-.983-2.447-2.626-1.374-4.335 1.542-6.592 1.676M579.492 184.396c-.078-.123-.648-1.184-.279-1.206.089 0 .056 1.988.056 2.033 0 2.033-.335 4.022-.525 6.033-.536 5.743-1.531 11.541-.849 17.306.368 3.117-.436 5.564 2.949 6.469.481.123 1.073.302 1.587.201 4.133-.838 2.368-4.592 2.849-8.033.715-5.083.536-10.256 1.083-15.328.224-2.078.101-4.223.324-6.313.146-1.318.38-2.212-.156-3.541-.291-.727-2.693-.19-3.274-.157-1.061.067-3.597.056-3.988 1.52-.134.514.313 1.776.424 2.245" fill="#D0D5DD"/><path fill-rule="evenodd" clip-rule="evenodd" d="M1150.39 175.458c-.53-.056-1.09-.145-1.64-.156-.38-.011-.77 0-1.11.145-.51.235-1.06.302-1.62.268-.15 0-.36-.033-.57-.056.03.235.05.526.05.76.02 1.844-.27 3.698-.36 5.531-.28 5.809-.17 11.764.36 17.551.13 1.486-.08 3.442.24 4.939h.41c1.48.055 3.07.424 4.54.29.05 0 .16 0 .28-.011v-.022c-.05-.537-.14-1.073-.16-1.52-.09-1.743-.16-3.508-.21-5.24-.05-2.067.02-4.122-.08-6.2-.06-1.296-.13-2.581-.12-3.888.03-2.76-.35-5.531-.22-8.29.06-1.173.28-2.793.21-4.101Zm-4.08-3.083c-.07 0-.35-.023-.51-.045a5.05 5.05 0 0 0-.8-.056c-.65 0-1.23.179-1.76.592l-.03.034a1.5 1.5 0 0 0-.46.369 2.634 2.634 0 0 0-.68 1.698c-.03.413.07.905.08 1.497.02 1.776-.27 3.564-.35 5.329-.29 5.966-.18 12.078.36 18.021.18 1.967-.05 4.637.62 6.424.24.637.7 1.073 1.31 1.33.59.235 1.45.223 1.96.235 1.62.044 3.34.413 4.95.268.29-.023 1.16 0 1.74-.213.75-.257 1.24-.77 1.44-1.407.31-.995.02-2.436-.02-3.453-.1-1.709-.16-3.441-.2-5.15-.06-2.089.01-4.167-.09-6.268-.06-1.24-.13-2.469-.11-3.709.02-2.715-.36-5.441-.23-8.156.08-1.709.37-4.223.02-5.843-.14-.659-.54-1.129-1.12-1.419-.45-.224-1.13-.257-1.51-.302-1.5-.156-3.22-.38-4.61.235v-.011Z" fill="#101828"/><path fill-rule="evenodd" clip-rule="evenodd" d="M1145.51 182.72c.15.291.21.604.19.905.03-.29-.01-.592-.19-.905Zm-.67 2.257c.84.045 3.61.179 4.21.246.13.011.87-.022 1.15-.034.53.179 1.12.09 1.59-.279.71-.581.82-1.631.24-2.357-.21-.268-.61-.592-1.25-.682-.37-.056-1.27 0-1.47.011-.85-.089-3.39-.335-4.66-.279-.69.034-1.19.201-1.42.324-.45.257-.67.603-.78.939-.17.447-.19.96.14 1.508a1.696 1.696 0 0 0 2.25.603ZM1050.45 181.257h-.02.02Zm5.1-.279c-.37.022-.68.033-.73.033-.94 0-2.2-.134-2.98.034-.11.022-.26.022-.42.022-.03.905-.09 2.48-.12 2.681-.66 4.469-.75 8.748-.88 13.217-.1 3.307-.65 6.659-.35 9.955.01.123.04.436.06.793 1.47-.19 3.16-.212 4.31-.223.07 0 .25-.022.41-.045.08-.748-.07-1.519-.1-2.268-.04-2.089.01-4.178.03-6.268.01-3.385.17-6.781.28-10.155.04-1.665.6-3.33.54-4.983-.03-.816-.06-1.855-.06-2.816l.01.023Zm-.79-3.319c-1.07 0-2.48-.089-3.44.079-.41-.023-1.2-.023-1.71.279-.52.156-1.15.603-1.4 1.586-.25.939-.23 3.721-.23 3.721v-.056c-.68 4.603-.78 9.005-.92 13.608-.1 3.441-.65 6.938-.34 10.357.03.38.07 1.687.17 2.368.07.425.18.738.27.905.23.425.53.637.79.76.42.201.87.224 1.33.056 1.33-.503 3.74-.447 5.16-.458.44 0 1.49-.078 2.19-.402.67-.313 1.11-.816 1.3-1.419.39-1.263.2-2.615.16-3.911-.04-2.055.03-4.111.03-6.178.01-3.352.18-6.715.28-10.066.05-1.732.6-3.475.54-5.195-.04-1.241-.13-3.084-.02-4.112.07-.648-.13-1.307-.93-1.732-.2-.111-.58-.234-1.07-.268-.64-.044-2.01.078-2.18.101l.02-.023Z" fill="#101828"/><path fill-rule="evenodd" clip-rule="evenodd" d="M1051.81 186.821a1.625 1.625 0 0 0-.6-.861c.3.224.5.537.6.861Zm-1.01 2.044c.27-.044 1.17-.19 1.32-.201 1.32-.045 2.65-.022 3.93.123.92.101 1.75-.57 1.85-1.486.1-.916-.57-1.743-1.49-1.843a30.3 30.3 0 0 0-4.41-.134c-.35 0-2.11.29-2.39.402-.76.301-.95.86-1.02 1.084-.2.636-.12 1.307.61 1.843.48.357 1.08.413 1.6.223v-.011ZM737.044 181.67a.96.96 0 0 0-.245.045c-.458.089-.917.223-1.375.357-1.061.302-2.111.548-3.083.436l-.157-.022a1.975 1.975 0 0 1-.178.246c-.045.793-.134 2.379-.213 2.86-.435 2.603-.402 5.273-.681 7.876-.525 4.849-.67 10.19 0 14.994.045.301.056 2.245.056 3.284 1.586.436 3.821.458 5.541.269l-.089-1.877c-.056-3.453.201-6.927.022-10.357-.268-5.151.235-10.29.224-15.374 0-.201.111-1.675.19-2.737h-.012Zm-8.289-.022c-.045.223-.09.48-.112.76-.078.882-.067 2.134-.157 2.636-.447 2.659-.424 5.397-.715 8.078-.547 5.117-.692 10.748 0 15.809.067.458-.056 3.609.134 4.346.201.771.704 1.095.995 1.24 2.458 1.117 7.306 1.14 9.843.581.234-.056 1.229-.346 1.34-1.586.045-.581-.134-3.363-.134-3.408-.056-3.497.201-7.005.011-10.48-.268-5.094.246-10.178.224-15.217 0-.357.335-3.53.246-4.234-.123-.961-.749-1.318-1.017-1.441-1.14-.525-2.346-.503-3.553-.246-1.095.235-2.19.804-3.184.693-.894-.101-1.933-.28-2.894-.067a1.692 1.692 0 0 0-1.285 2c.045.201.123.379.224.547l.034-.011Z" fill="#101828"/><path fill-rule="evenodd" clip-rule="evenodd" d="M731.785 187.078h.034-.034Zm.336 2.905.994-.112c.681-.078 1.329-.011 1.966.022.894.056 1.777.079 2.704-.123a1.69 1.69 0 0 0 1.285-1.999 1.685 1.685 0 0 0-1.989-1.285c-.603.134-1.184.089-1.765.056-.838-.056-1.687-.123-2.581 0-.369.044-1.374.122-1.855.245a2.16 2.16 0 0 0-.949.47 1.63 1.63 0 0 0-.57 1.407c.022.347.134 1.151 1.251 1.553.537.19 1.095.09 1.531-.223l-.022-.011ZM585.356 183.592l-.938-.101c-.492-.055-2.022-.29-3.341-.245-.123 0-.257.022-.391.033 0 .078 0 .157-.022.246a1.652 1.652 0 0 1-.369.827c.045.514.123 1.441.134 1.687.09 2.715-.391 6.033-.692 8.77-.525 4.938-.883 10.871-.023 15.798.045.235.157 1.944.235 3.072 1.508.023 3.206-.156 4.703-.357.056-.179.168-.603.202-.905.167-1.911-.257-4.424-.146-5.553.615-5.709.28-11.675.38-17.418.034-1.832.469-3.999.257-5.865l.011.011Zm-8.245-.682c-.123.336-.201.783-.201 1.296 0 .716.156 1.609.168 1.933.089 2.57-.391 5.698-.671 8.301-.558 5.229-.894 11.508 0 16.726.067.391.179 3.742.369 4.435.313 1.095 1.151 1.296 1.497 1.33 2.067.223 4.737-.012 6.994-.324 1.419-.202 2.346-1.185 2.726-2.771.268-1.095.246-2.559.156-3.933-.067-1.084-.189-2.1-.134-2.692.626-5.799.302-11.877.391-17.72.034-2.313.559-5.083.079-7.318-.157-.715-.637-1.296-1.442-1.642-.692-.291-1.798-.335-2.312-.391-.838-.09-4.179-.514-5.776.044-.928.324-1.498.905-1.743 1.587a2.435 2.435 0 0 0-.134 1.128l.033.011Z" fill="#101828"/><path fill-rule="evenodd" clip-rule="evenodd" d="M580.763 187.838c.313.268.514.625.581 1.016-.033-.301-.167-.681-.581-1.016Zm-.938 2.949c.302.045 1.084.145 1.341.168.793.089 1.921.223 2.927.145.972-.078 1.832-.358 2.447-.849.715-.581.838-1.643.257-2.358a1.684 1.684 0 0 0-2.358-.257c-.223.179-.592.135-.949.135-.704 0-1.431-.09-1.967-.157-.313-.033-1.117-.156-1.497-.19-.335-.033-.581 0-.681.023-.838.178-1.118.737-1.241 1.072-.167.458-.335 1.251.581 1.933.336.257.749.357 1.14.324v.011ZM986.271 115.675c-.146-.302-.95.536-1.162.681-1.106.726-2.112 1.575-3.196 2.324-2.893 2.022-5.832 4.123-8.725 6.145-3.743 2.614-7.966 4.804-11.575 7.631-.983.771-2.983 1.53-3.676 2.513-.257.369.157 1.9-.055 2.592-.224.749-.358 2.123-.816 2.794-.425.603-.816 1.016-1.151 1.653-.748 1.441-2.212 2.19-3.251 3.307-.324.346-1.486.704-1.598 1.095-.056.179.336.972.358 1.195.167 1.352.413 2.805.29 4.157-.346 3.921-1.921 7.798-4.323 10.993-3.419 4.536-7.642 7.653-12.145 11.016-2.614 1.955-5.709 3.397-7.809 5.944-1.687 2.033-2.011 4.715-2.246 7.296-.045.491.357 1.016.369 1.486.033.96.502 1.91.536 2.86.022.48.447 1.363.447 1.363s-.738-.38-1.117-.57c-.66-.324-1.33-.76-2-1.106-.123-.067-1.307-.883-1.352-.726-.09.279.212 1.005.223 1.34.034.961.246 1.933.335 2.894.112 1.128-.189 2.335-.078 3.486.224 2.402.402 4.804.827 7.161.235 1.285.536 2.738.916 3.967.101.335.603.994.503 1.329-.034.123-.849-.212-.961-.279-.871-.603-1.698-1.285-2.57-1.888-1.675-1.173-2.681-3.307-3.664-5.106-.224-.413-1.028-1.508-.872-2.011.079-.246-.134.503-.257.726-.257.447-.48.916-.692 1.408-.38.827-.503 1.877-.536 2.782 0 .201.089 1.195-.101 1.296-.291.156-.134-.648-.235-.972a46.747 46.747 0 0 0-.804-2.414c-.894-2.39-1.073-4.647-1.296-7.206-.112-1.218-.391-2.368-.212-3.62.726-4.994 1.061-9.977 2.111-14.915.436-2.056.637-4.257 1.441-6.201a60.084 60.084 0 0 0 2.246-6.345c.078-.246.916-1.799.816-1.989-.112-.201-.47 0-.693-.067-.76-.224-1.564-.391-2.302-.726-2.636-1.207-5.496-2.034-8.032-3.598-1.933-1.184-3.833-2.38-5.821-3.419-2.469-1.296-4.57-3.474-6.771-5.161-2.246-1.721-4.603-3.263-6.737-5.106-1.664-1.441-3.05-3.542-4.301-5.341-1.095-1.564-2.447-2.904-3.274-4.659-.67-1.43-.737-3.061-1.173-4.558-.234-.793-.145-1.665-.313-2.458-.033-.156-.257-.637-.145-.804.157-.224 1.419.402 1.564.458 1.978.782 3.832 1.832 5.709 2.815 4.257 2.235 8.849 4.223 13.586 5.33 1.263.29 2.391.826 3.609 1.251.469.167.916.302 1.363.503.022 0 .57.301.581.268.033-.101-.425-.525-.447-.559-.615-.659-1.05-1.631-1.52-2.391-1.921-3.072-4.078-6.078-5.508-9.44-.424-.995-.949-1.944-1.307-2.95-.134-.369-.782-.894-.447-1.073.112-.055.503.28.525.302.682.481 1.341.972 2.034 1.453 2.525 1.754 5.195 3.586 7.865 5.15 4.883 2.871 9.966 5.441 15.318 7.016 1.62.481 3.273 1.252 4.915 1.497 2.358.347 4.123 1.319 6.458 1.241.536-.023.86.491 1.43.469.078 0-.112-1.486-.123-1.832-.044-1.229.056-2.771.403-3.956.849-2.904 3.541-4.971 6.312-5.999 2.134-.793 6.122-1.441 8.323-.436.715.324 1.498.481 2.157.872.771.458 1.441 1.474 2.324 1.441.703-.023 1.653-.805 2.29-1.028 2.525-.905 4.916-2.179 7.418-3.173 4.257-1.676 8.145-4.201 12.391-5.877 2.804-1.106 6.033-1.821 8.681-3.273M564.074 95.43c-.536-.145-1.117 1.72-1.452 2.201-1.352 1.955-2.782 4-3.877 6.111-2.458 4.726-5.709 9.262-8.748 13.664-1.017 1.475-1.955 2.994-2.972 4.48-.491.715-1.24 2.291-1.24 2.291s.715-.626 1.017-.983c.626-.727 1.195-1.486 1.866-2.213 1.631-1.765 3.385-3.441 5.038-5.195 3.196-3.385 6.693-6.446 9.374-10.312.872-1.262 2.078-2.38 3.039-3.419.078-.089.57-.905.76-.938.19-.034.983.402 1.273.436 1.497.122 2.849.346 4.212.089.838-.156 1.844-.682 2.693-.961a46.9 46.9 0 0 0 1.374-.514s-.246.738-.324 1.129c-.145.726-.234 1.519-.391 2.201-.413 1.821.525 5.631 1.218 7.373.871 2.179 2.637 5.173 4.447 6.782 2.39 2.134 4.267 3.464 5.809 6.268 2.805 5.083-2.368 8.759-5.351 11.843-.291.29-2.928 2.916-2.827 3.452.045.268 1.017.056 1.207.045 1.229-.045 2.435-.246 3.653-.067.089.011.938.044.972.223.078.402-.771 1.486-.983 1.91-.76 1.52-1.899 2.838-2.972 4.145-.436.526-1.575 1.397-1.676 2.112-.045.324 1.095.324 1.129.324 1.296-.056 2.949-.19 4.122-.76.123-.056 1.844-.949 1.832-.536-.022 1.05-.625 2.257-.927 3.307-.838 2.894-1.989 5.676-3.039 8.491-.156.414-1.497 3.81-.681 3.922 1.005.145 2.77-2.548 3.161-3.117 2.112-3.062 4.458-6.201 6.112-9.519.201-.403 1.273-2.894 1.843-3.006.224-.044.693.671.805.782.402.391 2.324 2.704 3.072 2.57.481-.089.168-1.028.179-1.229.022-1.642-.034-3.262.436-4.882.044-.157.257-1.386.402-1.408 1.218-.224 2.86.089 4.189-.034.179-.022.939.112 1.006.012.246-.347-.849-2.861-.983-3.151-.793-1.832-.905-3.776-1.374-5.676-.324-1.34-1.207-2.592-1.453-3.932-.078-.447-.558-3.274-.324-3.609 1.207-1.743 3.341-2.927 4.223-4.972.559-1.285.012-3.776.715-4.793.291-.413 1.017-.067 1.498-.212 1.061-.324 1.988-.804 2.949-1.341 3.542-1.955 6.435-4.547 9.653-6.971 3.396-2.548 5.72-6.078 8.58-9.173 5.263-5.698 9.318-12.815 12.86-19.619 1.877-3.608 2.525-7.787 3.653-11.664 1.162-4.022 2.168-7.988 2.436-12.178.089-1.374.681-3.921.078-5.016-.581-1.061-2.346 2.056-2.558 2.402-2.481 4.134-5.385 8.2-8.57 11.764-4.96 5.564-9.865 10.916-15.775 15.352-1.229.927-2.223 2.256-3.397 3.284-3.452 3.04-8.502 5.419-13.205 5.754-2.19.156-4.782-.123-6.816.246-.614.111-1.988-2.916-2.212-3.33-.826-1.508-3.027-2.826-4.569-3.497-2.302-.994-5.14-1.262-7.787-1.43-.995-.067-2.134.168-3.028-.178-2.693-1.017-4.57-4.134-6.402-6.224-1.676-1.899-3.419-3.552-4.849-5.709-3.083-4.636-5.307-9.362-7.564-14.334-.715-1.575-.614-3.352-.893-4.904-.045-.235-.079-1.99-.101-1.978-.402.078-.782 2.525-.871 2.894-.782 3.44-1.185 6.703-1.319 10.234-.245 6.68.235 14.412 2.916 20.59a18.99 18.99 0 0 0 4.168 6.033c.536.514 2.279 1.542 2.402 2.224.089.503-.637 1.564-.805 2.145-.391 1.352-1.251 3.977.101 4.916M880.567 140.991c-2.648-3.508-4.714-7.139-6.502-11.138-.492-1.084-1.05-2.123-1.374-3.274a1.127 1.127 0 0 0-1.386-.771 1.126 1.126 0 0 0-.771 1.385c.358 1.263.961 2.391 1.486 3.576 1.866 4.167 4.011 7.932 6.76 11.574a1.12 1.12 0 0 0 1.564.224 1.109 1.109 0 0 0 .212-1.564l.011-.012ZM873.54 138.511c-1.207-.994-2.156-2.905-2.793-4.312-.469-1.051-1.263-1.989-1.754-3.073a1.117 1.117 0 0 0-1.475-.559 1.117 1.117 0 0 0-.559 1.475c.481 1.084 1.285 2.022 1.754 3.073.76 1.687 1.967 3.932 3.408 5.128.48.391 1.184.324 1.575-.157a1.118 1.118 0 0 0-.156-1.575ZM549.917 69.32c-.268-.558-.234-1.095-.38-1.698-.424-1.81-.782-3.598-.994-5.43-.626-5.284-.994-10.938-.313-16.245a1.12 1.12 0 0 0-.961-1.25 1.12 1.12 0 0 0-1.251.96c-.704 5.486-.335 11.329.313 16.792.223 1.922.603 3.788 1.039 5.676.179.77.19 1.452.547 2.178.268.548.939.782 1.497.514.548-.268.783-.938.514-1.497h-.011ZM543.605 63.097c-.536-2.223-.715-4.692-.693-6.971 0-.894-.257-1.766-.178-2.66a1.132 1.132 0 0 0-1.028-1.206 1.131 1.131 0 0 0-1.207 1.028c-.078.95.179 1.877.179 2.826-.022 2.458.179 5.106.76 7.508.145.603.748.972 1.352.827.603-.145.972-.749.826-1.352h-.011ZM626.34 117.697c1.095-.101 1.866-.816 2.67-1.542 1.509-1.374 2.872-2.961 4.246-4.469 6.335-6.994 10.536-15.34 14.223-23.942a1.112 1.112 0 0 0-.593-1.464 1.107 1.107 0 0 0-1.463.592c-3.587 8.38-7.653 16.513-13.821 23.317-1.318 1.452-2.625 2.994-4.089 4.313-.234.212-.458.435-.692.625-.202.168-.403.324-.682.347a1.115 1.115 0 0 0-1.005 1.217 1.124 1.124 0 0 0 1.217 1.017l-.011-.011ZM636.662 114.792c2.112-2.581 3.765-5.441 5.43-8.357a1.113 1.113 0 0 0-.414-1.519 1.112 1.112 0 0 0-1.519.413c-1.609 2.804-3.184 5.564-5.218 8.055a1.118 1.118 0 0 0 .157 1.576c.48.391 1.184.324 1.575-.157l-.011-.011Z" fill="#101828"/></g><defs><clipPath id="a"><path fill="#fff" d="M0 0h1512v318H0z"/></clipPath></defs></svg>